<?xml version="1.0" encoding="utf-8"?>
<!-- Generator: Adobe Illustrator 24.1.3, SVG Export Plug-In . SVG Version: 6.00 Build 0)  -->
<svg version="1.1" xmlns="http://www.w3.org/2000/svg" xmlns:xlink="http://www.w3.org/1999/xlink" x="0px" y="0px"
	 viewBox="0 0 200 200" style="enable-background:new 0 0 200 200;" xml:space="preserve">
<style type="text/css">
	.st0{fill:#4DAF4F;}
	.st1{fill:#F4F4F4;}
	.st2{display:none;}
	.st3{display:inline;fill:#FFFFFF;stroke:#000000;stroke-width:0.8168;stroke-miterlimit:10;}
</style>
<g id="Layer_1">
	<g>
		<path class="st0" d="M5.66,101.64c0-1.13,0-2.26,0-3.39c0.01-0.55,0-1.1,0.1-1.66c0.09-0.52,0.18-1.05,0.11-1.59
			c0.12-1.42,0.22-2.84,0.36-4.25c0.45-4.95,1.32-9.82,2.58-14.63c8.3-31.67,32.44-56.84,63.69-66.39
			c5.95-1.82,12.03-3.03,18.23-3.64c2.1-0.21,4.21-0.32,6.32-0.44c2.07,0,4.13,0,6.2,0c2.97,0.15,5.93,0.36,8.88,0.73
			c5.81,0.74,11.5,2,17.07,3.81c29.35,9.53,52.25,32.86,61.21,62.39c1.73,5.7,2.9,11.51,3.52,17.44c0.24,2.3,0.4,4.6,0.45,6.9
			c0,2.02,0,4.03,0,6.05c-0.05,2.78-0.27,5.54-0.6,8.3c-0.68,5.77-1.86,11.44-3.64,16.97c-7,21.69-20.08,38.77-39.18,51.19
			c-10.35,6.73-21.67,11.12-33.82,13.35c-3.48,0.64-6.99,1.04-10.51,1.33c-0.32,0.01-0.64,0.02-0.95,0.03
			c-1.35,0.06-2.69,0.25-4.04,0.23c-0.98,0-1.97,0-2.95,0c-0.56-0.03-1.12,0-1.69-0.06c-1.15-0.11-2.3-0.14-3.45-0.21
			c-2.59-0.24-5.18-0.49-7.76-0.88c-8.2-1.25-16.12-3.49-23.68-6.9C39.92,176.29,23.79,160.18,13.77,138
			c-4.38-9.71-6.88-19.93-7.71-30.55c-0.07-0.86-0.14-1.71-0.21-2.57c0.07-0.27,0-0.53-0.02-0.8
			C5.78,103.27,5.58,102.46,5.66,101.64z M85.47,139.25c0.34-0.32,0.61-0.57,0.88-0.82c21.32-20.08,42.63-40.15,63.95-60.22
			c0.13-0.12,0.24-0.24,0.37-0.36c0.2-0.17,0.17-0.32-0.01-0.49c-0.09-0.08-0.17-0.18-0.25-0.27c-3.23-3.43-6.47-6.87-9.7-10.3
			c-0.12-0.13-0.24-0.24-0.36-0.37c-0.17-0.2-0.33-0.17-0.49,0.01c-0.08,0.09-0.18,0.17-0.27,0.25
			c-17.72,16.69-35.44,33.38-53.16,50.07c-0.76,0.72-0.56,0.74-1.34-0.04c-9.13-9.07-18.27-18.14-27.4-27.21
			c-0.69-0.69-0.51-0.69-1.21,0.02c-3.29,3.31-6.58,6.62-9.87,9.94c-0.19,0.19-0.42,0.35-0.54,0.66
			C59.18,113.14,72.3,126.17,85.47,139.25z"/>
		<path class="st1" d="M85.47,139.25c-13.17-13.08-26.29-26.11-39.4-39.12c0.12-0.32,0.35-0.48,0.54-0.66
			c3.29-3.31,6.57-6.63,9.87-9.94c0.7-0.71,0.52-0.71,1.21-0.02c9.13,9.07,18.27,18.14,27.4,27.21c0.78,0.78,0.58,0.76,1.34,0.04
			c17.72-16.69,35.44-33.38,53.16-50.07c0.09-0.08,0.18-0.16,0.27-0.25c0.16-0.17,0.32-0.21,0.49-0.01
			c0.11,0.13,0.24,0.25,0.36,0.37c3.23,3.43,6.47,6.87,9.7,10.3c0.08,0.09,0.16,0.19,0.25,0.27c0.18,0.16,0.21,0.32,0.01,0.49
			c-0.13,0.11-0.25,0.24-0.37,0.36c-21.32,20.08-42.63,40.15-63.95,60.23C86.08,138.68,85.81,138.93,85.47,139.25z"/>
	</g>
</g>
<g id="Layer_2" class="st2">
	<rect x="5.64" y="5.64" class="st3" width="188.72" height="188.72"/>
</g>
</svg>
