<?xml version="1.0" encoding="utf-8"?>
<!-- Generator: Adobe Illustrator 24.1.3, SVG Export Plug-In . SVG Version: 6.00 Build 0)  -->
<svg version="1.1" xmlns="http://www.w3.org/2000/svg" xmlns:xlink="http://www.w3.org/1999/xlink" x="0px" y="0px"
	 viewBox="0 0 200 200" style="enable-background:new 0 0 200 200;" xml:space="preserve">
<style type="text/css">
	.st0{display:none;}
	.st1{display:inline;fill:#FFFFFF;stroke:#000000;stroke-width:0.8168;stroke-miterlimit:10;}
	.st2{fill:#ED1C24;}
</style>
<g id="Layer_2" class="st0">
	<rect x="5.64" y="5.64" class="st1" width="188.72" height="188.72"/>
</g>
<g id="Layer_1">
	<g>
		<path class="st2" d="M95.28,5.64c3.14,0,6.29,0,9.44,0c0.42,0.08,0.83,0.19,1.26,0.24c3.38,0.39,6.79,0.58,10.13,1.18
			c23.69,4.29,43.11,15.86,58.07,34.72c10.85,13.68,17.27,29.28,19.4,46.62c0.29,2.38,0.52,4.76,0.78,7.13c0,2.97,0,5.94,0,8.91
			c-0.08,0.34-0.19,0.67-0.23,1.01c-0.4,3.55-0.58,7.14-1.21,10.65c-4.12,22.93-15.15,41.9-33.09,56.75
			c-14.02,11.61-30.17,18.48-48.25,20.71c-2.37,0.29-4.75,0.52-7.13,0.78c-2.97,0-5.94,0-8.91,0c-0.25-0.07-0.49-0.18-0.74-0.21
			c-3.64-0.41-7.32-0.59-10.92-1.23c-20.88-3.7-38.64-13.29-53.06-28.85c-13.76-14.84-21.9-32.39-24.42-52.5
			c-0.29-2.28-0.51-4.57-0.77-6.86c0-3.14,0-6.29,0-9.44c0.07-0.25,0.18-0.49,0.21-0.74c0.4-3.55,0.58-7.14,1.21-10.65
			c4.27-23.65,15.81-43.05,34.62-58C55.39,15,71.03,8.55,88.42,6.41C90.71,6.13,92.99,5.9,95.28,5.64z M100.04,14.52
			C52.47,14.67,15.69,52.5,14.57,97.47c-1.25,50.07,38.47,87.09,83.29,87.98c49.73,0.98,86.7-38.5,87.6-83.43
			C186.43,52.69,146.8,14.52,100.04,14.52z"/>
		<path class="st2" d="M162.54,60.57c-12.94,13.24-25.84,26.44-38.82,39.72c12.95,13.49,25.87,26.94,38.8,40.41
			c-7.85,7.68-15.61,15.27-23.38,22.87c-3.35-3.33-6.68-6.64-10-9.96c-3.58-3.59-7.15-7.18-10.71-10.79
			c-5.77-5.84-11.54-11.67-17.28-17.54c-0.74-0.75-1.23-0.89-1.98-0.03c-1.29,1.48-2.66,2.89-4.03,4.29
			c-5.84,5.95-11.71,11.88-17.53,17.84c-5.12,5.24-10.21,10.52-15.31,15.79c-0.3,0.31-0.52,0.7-0.8,1.09
			c-8-7.81-15.81-15.42-23.66-23.08c13.15-13.46,26.23-26.84,39.4-40.31C64.15,87.32,51.06,73.77,37.83,60.1
			c7.83-7.64,15.65-15.28,23.5-22.95c13.12,13.23,26.22,26.43,39.37,39.7c12.82-13.11,25.53-26.11,38.36-39.22
			C146.88,45.26,154.69,52.89,162.54,60.57z"/>
	</g>
</g>
</svg>
