<?xml version="1.0" encoding="utf-8"?>
<!-- Generator: Adobe Illustrator 24.1.3, SVG Export Plug-In . SVG Version: 6.00 Build 0)  -->
<svg version="1.1" xmlns="http://www.w3.org/2000/svg" xmlns:xlink="http://www.w3.org/1999/xlink" x="0px" y="0px"
	 viewBox="0 0 200 200" style="enable-background:new 0 0 200 200;" xml:space="preserve">
<style type="text/css">
	.st0{display:none;}
	.st1{display:inline;fill:#FFFFFF;stroke:#000000;stroke-width:0.8168;stroke-miterlimit:10;}
	.st2{fill:#010101;}
</style>
<g id="Layer_2" class="st0">
	<rect x="5.64" y="5.64" class="st1" width="188.72" height="188.72"/>
</g>
<g id="Layer_1">
	<g>
		<path class="st2" d="M194.36,48.37c-1.15,3.85-3.82,5.82-7.63,6.9c-8.8,2.49-15.7,8.12-22.48,13.98
			c-3.26,2.82-4.3,5.88-4.27,10.17c0.2,28.4,0.1,56.8,0.1,85.19c0,0.78,0,1.56,0,2.44c-51.56,0-102.92,0-154.45,0
			c0-37.29,0-74.61,0-112.13c0.8,0,1.58,0,2.36,0c31.9,0,63.8-0.01,95.7,0.03c1.4,0,2.44-0.34,3.39-1.38
			c1.24-1.35,2.59-2.63,3.99-3.83c3.59-3.08,8.08-2.9,11.45,0.38c0.22,0.21,0.48,0.41,0.63,0.67c2.24,3.71,5.58,4.67,9.7,4.18
			c2.24-0.27,4.56-0.19,6.81-0.01c2.14,0.18,3.69-0.59,5.25-1.97c8.27-7.29,17.39-13.25,27.82-16.98c3.45-1.23,7.05-2.1,10.65-2.86
			c4.39-0.93,8.26,1.58,9.47,5.89c0.56,1.99,1,4.01,1.49,6.01C194.36,46.16,194.36,47.27,194.36,48.37z M116.03,54.99
			c-2.91,3.27-5.69,6.4-8.11,9.12c8.94,9.09,18.24,18.56,27.6,28.08c0.58-0.94,1.14-1.81,1.66-2.71
			c4.44-7.62,9.67-14.67,15.65-21.15c6.32-6.85,13.19-13.09,21.53-17.43c3.57-1.85,7.37-3.27,11.29-4.98
			c-0.32-1.59-0.69-3.43-1.12-5.53c-21.58,4.5-36.61,18.37-50.59,34C127.97,67.93,122.11,61.58,116.03,54.99z M135.33,129.09
			c0.97-0.43,2.07-0.82,3.06-1.37c3.64-2.03,5.5-5.15,5.44-9.34c-0.06-3.93-2.05-6.76-5.56-8.17c-7.79-3.13-15.22-1.98-22.45,2.41
			c1.45,2.15,2.77,4.12,4.15,6.17c0.73-0.39,1.36-0.74,2-1.09c2.77-1.53,5.7-2.19,8.87-1.79c2.74,0.35,4.2,1.95,4.19,4.66
			c-0.02,2.97-1.52,4.74-4.84,5.24c-2.53,0.38-5.1,0.42-7.84,0.63c0,1.1,0,2.19,0,3.28c0,1.08,0,2.17,0,3.44
			c0.97,0,1.69-0.04,2.41,0.01c2.2,0.16,4.44,0.17,6.6,0.57c2.9,0.53,4.26,2.16,4.36,4.68c0.12,2.99-1.19,5.14-3.99,5.84
			c-1.87,0.47-3.92,0.8-5.81,0.55c-3.37-0.44-6.67-1.37-10.03-2.11c0,2.15,0,4.58,0,7c5.33,2.44,13.92,3.11,19.53,1.45
			c3.45-1.02,6.4-2.75,8.26-6.02c2.65-4.66,1.65-10.99-2.42-13.54C139.47,130.46,137.34,129.91,135.33,129.09z M77.98,143.92
			c-0.06-0.14-0.13-0.27-0.19-0.4c3.02-2.86,6.19-5.58,9-8.63c2.51-2.73,5.16-5.57,6.77-8.85c3.63-7.43,0.63-14.99-7.42-16.94
			c-7.41-1.8-13.93,0.17-19.59,5.51c1.61,1.91,3.18,3.76,4.79,5.67c0.71-0.52,1.25-1.08,1.9-1.37c2.33-1.01,4.63-2.31,7.08-2.8
			c3.77-0.74,6.11,1.8,5.74,5.61c-0.25,2.64-1.5,4.81-3.24,6.67c-4.54,4.83-8.95,9.83-13.86,14.28c-2.95,2.68-2.22,5.57-2.28,8.61
			c9.97,0,19.69,0,29.41,0c0-2.52,0-4.88,0-7.36C89.97,143.92,83.98,143.92,77.98,143.92z M39.33,151.34c0-14.07,0-28.05,0-42.22
			c-2.16,0-4.23-0.02-6.31,0.02c-0.47,0.01-1.03,0.08-1.38,0.35c-4.39,3.44-8.75,6.92-13.23,10.48c1.47,1.84,2.84,3.54,4.32,5.38
			c2.57-2.25,5.02-4.4,7.87-6.9c0,11.37,0,22.13,0,32.9C33.62,151.34,36.43,151.34,39.33,151.34z"/>
	</g>
</g>
</svg>
