<?xml version="1.0" encoding="utf-8"?>
<!-- Generator: Adobe Illustrator 24.1.3, SVG Export Plug-In . SVG Version: 6.00 Build 0)  -->
<svg version="1.1" xmlns="http://www.w3.org/2000/svg" xmlns:xlink="http://www.w3.org/1999/xlink" x="0px" y="0px"
	 viewBox="0 0 200 200" style="enable-background:new 0 0 200 200;" xml:space="preserve">
<style type="text/css">
	.st0{display:none;}
	.st1{display:inline;fill:#FFFFFF;stroke:#000000;stroke-width:0.8168;stroke-miterlimit:10;}
	.st2{fill:#010101;}
</style>
<g id="Layer_2" class="st0">
	<rect x="5.64" y="5.64" class="st1" width="188.72" height="188.72"/>
</g>
<g id="Layer_1">
	<g>
		<path class="st2" d="M87.47,5.64c0.19,0.13,0.36,0.31,0.57,0.38c4.02,1.36,6.19,4.17,6.69,8.36c0.43,3.64,1.57,4.58,5.27,4.62
			c1.41,0.02,2.83,0.01,4.22,0.22c3.69,0.56,6.36,3.64,6.52,7.35c0.18,4.01-2.18,7.29-5.92,8.22c-0.65,0.16-1.33,0.29-2,0.3
			c-11.66,0.02-23.31,0.06-34.96-0.02c-3.63-0.02-6.46-2.27-7.49-5.5c-1.03-3.24-0.11-6.86,2.66-8.71c1.45-0.97,3.35-1.3,5.08-1.81
			c0.62-0.18,1.34-0.04,2.02-0.04c4.58,0,5.36-0.75,6-5.25c0.5-3.56,2.48-6.06,5.82-7.44c0.5-0.21,0.98-0.44,1.47-0.66
			C84.77,5.64,86.12,5.64,87.47,5.64z M85.35,18.95c2.2,0.01,4-1.77,3.98-3.96c-0.01-2.12-1.72-3.86-3.84-3.91
			c-2.23-0.05-4.02,1.65-4.06,3.87C81.39,17.15,83.13,18.94,85.35,18.95z"/>
		<path class="st2" d="M145.54,105.76c-4.44-1.72-8.76-3.39-13.3-5.15c0-15.28,0-30.87,0-46.6C101,54,69.9,54,38.65,54
			c0,35.5,0,71.02,0,106.84c0.69,0,1.39,0,2.1,0c14,0,28,0.02,42.01-0.03c1.26,0,1.87,0.4,2.56,1.5c2.52,4.03,5.24,7.94,7.92,11.94
			c-0.24,0-0.82,0-1.39,0c-18.67,0-37.34,0.01-56.01,0c-5.65,0-9.34-2.63-10.41-7.41c-0.21-0.95-0.24-1.95-0.24-2.92
			c-0.01-41.76-0.01-83.52-0.01-125.28c0-6.49,3.77-10.3,10.28-10.35c5.9-0.05,11.79,0.02,17.69-0.04c1.24-0.01,1.67,0.42,1.9,1.61
			c1.09,5.82,6,10.34,11.93,10.42c12.22,0.18,24.44,0.19,36.66,0.01c6.06-0.09,10.96-4.55,12.09-10.49c0.25-1.3,0.65-1.7,1.97-1.68
			c5.96,0.08,11.91,0,17.87,0.04c5.95,0.04,10.01,3.8,10.03,9.69c0.08,22.54,0.03,45.08,0.02,67.62
			C145.61,105.58,145.56,105.7,145.54,105.76z"/>
		<path class="st2" d="M122.75,105.98c22.22-0.02,39.42,18.31,37.99,39.56c-0.38,5.66-1.99,10.97-4.89,15.85
			c-0.74,1.25-0.56,1.96,0.44,2.94c5.3,5.2,10.56,10.46,15.77,15.75c4.07,4.15,3.55,10.08-1.05,12.99c-3.12,1.97-6.96,1.69-9.85-1
			c-3.19-2.97-6.2-6.13-9.29-9.21c-2.39-2.38-4.83-4.73-7.14-7.19c-0.94-1-1.65-1.03-2.8-0.37c-9.02,5.17-18.56,6.23-28.59,3.53
			c-13.26-3.57-24.2-16.06-26.34-29.6c-2.94-18.61,8.15-35.73,24.87-41.28c1.51-0.5,3.04-0.99,4.61-1.25
			C118.86,106.33,121.25,106.15,122.75,105.98z M149.17,143.2c0.08-14.03-11.36-25.53-25.46-25.57c-14-0.05-25.44,11.26-25.58,25.27
			c-0.13,14.18,11.26,25.71,25.45,25.75C137.68,168.69,149.09,157.35,149.17,143.2z"/>
		<path class="st2" d="M85.47,67.19c11.6,0,23.2,0.01,34.8-0.01c1.46,0,3.21-0.02,3.53,1.6c0.34,1.7,0.15,3.62-0.32,5.3
			c-0.17,0.61-1.84,1.1-2.83,1.12c-5.34,0.11-10.68,0.05-16.02,0.05c-17.92,0-35.84,0-53.76,0c-3.85,0-5.67-2.95-3.99-6.47
			c0.7-1.47,2.02-1.6,3.43-1.6C62.02,67.2,73.74,67.19,85.47,67.19z"/>
		<path class="st2" d="M85.32,99.29c-11.6,0-23.2,0-34.8,0c-1.37,0-3.1,0.15-3.46-1.38c-0.4-1.69-0.2-3.58,0.05-5.34
			c0.07-0.49,1.18-0.94,1.89-1.19c0.61-0.21,1.33-0.13,2-0.13c22.89,0,45.78,0.06,68.67-0.06c4.48-0.02,5.13,2.12,4.25,6.33
			c-0.31,1.49-1.68,1.77-3.08,1.76c-6.63-0.01-13.26-0.01-19.88-0.01C95.75,99.29,90.54,99.29,85.32,99.29z"/>
		<path class="st2" d="M92.86,112.89c-1.83,2.45-3.6,4.87-5.46,7.22c-0.3,0.38-1.05,0.58-1.6,0.58
			c-11.98,0.03-23.96,0.03-35.93,0.01c-2.38,0-3.26-0.97-3.31-3.4c-0.07-3.43,0.6-4.56,3.08-4.57c14.19-0.05,28.38-0.02,42.56-0.01
			C92.44,112.72,92.66,112.83,92.86,112.89z"/>
		<path class="st2" d="M80.57,144.86c-2.52,0-4.91,0-7.29,0c-7.56,0-15.11,0-22.66,0c-1.43,0-3.2,0.08-3.6-1.52
			c-0.4-1.63-0.22-3.48,0.06-5.17c0.09-0.54,1.3-1.26,2.01-1.26c10.61-0.08,21.23-0.06,31.93-0.06
			C80.87,139.51,80.73,142.05,80.57,144.86z"/>
	</g>
</g>
</svg>
