<?xml version="1.0" encoding="utf-8"?>
<!-- Generator: Adobe Illustrator 24.1.3, SVG Export Plug-In . SVG Version: 6.00 Build 0)  -->
<svg version="1.1" xmlns="http://www.w3.org/2000/svg" xmlns:xlink="http://www.w3.org/1999/xlink" x="0px" y="0px"
	 viewBox="0 0 200 200" style="enable-background:new 0 0 200 200;" xml:space="preserve">
<style type="text/css">
	.st0{display:none;}
	.st1{display:inline;fill:#FFFFFF;stroke:#000000;stroke-width:0.8168;stroke-miterlimit:10;}
	.st2{fill:#010101;}
</style>
<g id="Layer_2" class="st0">
	<rect x="5.64" y="5.64" class="st1" width="188.72" height="188.72"/>
</g>
<g id="Layer_1">
	<g>
		<path class="st2" d="M51.75,194.36c-0.33-0.12-0.66-0.28-1.01-0.37c-6.91-1.7-11.51-7.43-11.52-14.57
			c-0.03-32.8-0.01-65.6-0.01-98.4c0-2.15,1.03-3.44,2.72-3.47c1.74-0.03,2.8,1.3,2.81,3.56c0.01,10.93,0,21.87,0,32.8
			c0,0.66,0,1.32,0,2.16c13.04-1.47,25.03,2.61,37.17,5.8c4.44,1.16,8.96,2.12,13.5,2.77c8.74,1.24,17.01-1.33,25.36-3.41
			c7.73-1.93,15.5-3.72,23.34-5.11c3.56-0.63,7.31-0.11,11.18-0.11c0-0.75,0-1.35,0-1.94c0-17.26,0-34.52,0-51.78
			c0-6.74-3.74-10.45-10.53-10.46c-2.93-0.01-5.87,0-8.97,0c0,1.99,0.02,3.75,0,5.52c-0.05,3.92-2.56,6.47-6.44,6.51
			c-2.09,0.03-4.18,0.03-6.27,0c-3.61-0.06-6.09-2.46-6.27-6.12c-0.09-1.89-0.02-3.79-0.02-5.79c-11.25,0-22.28,0-33.63,0
			c0,1.72,0.01,3.41,0,5.1c-0.03,4.43-2.42,6.81-6.85,6.82c-1.97,0.01-3.93,0.03-5.9-0.01c-3.59-0.08-6.11-2.6-6.18-6.19
			c-0.04-1.84-0.01-3.68-0.01-5.62c-0.49-0.08-0.89-0.21-1.3-0.22c-2.89-0.02-5.78-0.07-8.66,0c-5.73,0.14-9.5,4.02-9.54,9.74
			c-0.01,1.78,0.02,3.56-0.01,5.34c-0.04,1.87-1.1,3.08-2.67,3.14c-1.64,0.06-2.83-1.21-2.84-3.15c-0.01-2.58-0.19-5.19,0.16-7.73
			c1.06-7.69,7.06-12.74,15.07-12.88c3.18-0.06,6.37-0.01,9.64-0.01c0.07-0.58,0.13-0.98,0.16-1.4c0.23-3.38,2.54-5.76,5.91-5.86
			c2.7-0.08,5.4,0.1,8.1,0.07c0.57-0.01,1.34-0.26,1.66-0.68c3.91-5.12,7.76-10.29,11.66-15.5c-1.84-2.67-2.72-5.54-2.03-8.73
			c1.02-4.72,4.21-7.29,8.64-8.58c1.23,0,2.46,0,3.69,0c0.39,0.15,0.78,0.31,1.18,0.44c6.67,2.13,9.61,9.59,6.07,15.63
			c-0.57,0.97-0.52,1.55,0.12,2.39c3.57,4.69,7.06,9.44,10.66,14.11c0.38,0.5,1.25,0.86,1.91,0.88c2.7,0.07,5.41-0.13,8.1-0.04
			c3.25,0.11,5.57,2.49,5.85,5.76c0.04,0.42,0.04,0.84,0.08,1.49c3.19,0,6.3,0,9.41,0c3.88,0,7.4,1.03,10.36,3.63
			c3.6,3.16,5.19,7.19,5.19,11.92c-0.01,16.16,0,32.31,0,48.47c0,20.46,0,40.91-0.01,61.37c0,0.73,0.03,1.5-0.15,2.19
			c-0.37,1.42-1.37,2.18-2.86,2.05c-1.48-0.13-2.33-1.01-2.48-2.49c-0.06-0.61-0.03-1.23-0.03-1.84c0-15.85,0-31.7,0-47.55
			c0-0.73,0-1.46,0-2.51c-3.69,0-7.24-0.25-10.75,0.05c-8.86,0.76-17.27,3.62-25.8,5.88c-7.87,2.09-15.83,3.98-23.99,2.64
			c-6.76-1.11-13.44-2.79-20.09-4.5c-8.69-2.23-17.31-4.71-26.42-4.25c-0.61,0.03-1.23,0.04-1.84,0.11
			c-0.49,0.05-0.96,0.17-1.66,0.3c0,0.64,0,1.3,0,1.95c0,18.31,0,36.61,0,54.92c0,6.4,3.79,10.18,10.2,10.18
			c30.05,0,60.09-0.01,90.14,0.02c3.73,0,6.66-1.28,8.81-4.39c1.09-1.58,2.61-1.89,3.97-0.97c1.34,0.9,1.59,2.48,0.58,4.06
			c-2.12,3.31-5.16,5.36-8.91,6.4c-0.4,0.11-0.78,0.28-1.17,0.42C116.15,194.36,83.95,194.36,51.75,194.36z M117.03,46.21
			c-0.25-1.28-0.14-2.59-0.72-3.4c-3.79-5.28-7.71-10.46-11.66-15.62c-0.32-0.41-1.16-0.56-1.77-0.58
			c-1.82-0.06-3.67,0.24-5.44-0.05c-1.19-0.19-1.73,0.05-2.39,0.94c-3.56,4.84-7.14,9.67-10.81,14.42
			c-1.03,1.34-1.43,2.62-0.82,4.28C94.44,46.21,105.46,46.21,117.03,46.21z M122.33,51.52c0,1.78,0.03,3.56-0.01,5.33
			c-0.02,1.07,0.32,1.56,1.48,1.51c1.65-0.08,3.31-0.06,4.96,0c1.08,0.04,1.55-0.3,1.53-1.45c-0.05-3.61-0.05-7.23,0-10.85
			c0.02-1.1-0.35-1.56-1.47-1.52c-1.65,0.05-3.31,0.07-4.96-0.01c-1.26-0.06-1.58,0.53-1.55,1.66
			C122.37,47.97,122.33,49.75,122.33,51.52z M69.78,51.43c0,1.84,0.03,3.67-0.01,5.51c-0.02,0.99,0.26,1.47,1.35,1.43
			c1.71-0.06,3.43-0.06,5.14,0c1.03,0.04,1.42-0.34,1.41-1.37c-0.03-3.67-0.03-7.35,0-11.02c0.01-0.99-0.29-1.46-1.35-1.43
			c-1.71,0.05-3.43,0.05-5.14,0c-1.01-0.03-1.44,0.32-1.4,1.38C69.82,47.75,69.78,49.59,69.78,51.43z M100.03,21.45
			c2.8-0.02,5.16-2.42,5.12-5.21c-0.05-2.81-2.45-5.12-5.26-5.06c-2.74,0.06-4.99,2.36-5,5.11C94.88,19.11,97.23,21.46,100.03,21.45
			z"/>
		<path class="st2" d="M99.97,154.43c8.41,0,16.83,0,25.24,0c0.61,0,1.24-0.02,1.84,0.07c1.32,0.21,2.07,1.03,2.21,2.34
			c0.14,1.39-0.44,2.44-1.79,2.85c-0.74,0.23-1.57,0.25-2.36,0.25c-16.71,0.01-33.41,0.01-50.12,0.01c-2.92,0-4.33-0.95-4.29-2.85
			c0.04-1.84,1.34-2.68,4.22-2.68C83.26,154.43,91.61,154.43,99.97,154.43z"/>
		<path class="st2" d="M100.05,172.82c-8.29,0-16.58,0-24.87,0c-0.61,0-1.23,0.02-1.84-0.04c-1.61-0.18-2.68-1.33-2.65-2.77
			c0.02-1.45,1.11-2.53,2.74-2.68c0.55-0.05,1.11-0.03,1.66-0.03c16.64,0,33.29,0,49.93,0c0.37,0,0.74-0.01,1.11,0.01
			c2.07,0.09,3.19,1.08,3.16,2.79c-0.02,1.69-1.16,2.71-3.25,2.72C117.37,172.83,108.71,172.82,100.05,172.82z"/>
		<path class="st2" d="M100.14,141.53c8.42,0,16.83-0.01,25.24,0.01c0.79,0,1.79-0.1,2.31,0.32c0.72,0.58,1.53,1.65,1.46,2.45
			c-0.07,0.88-0.96,1.84-1.73,2.47c-0.48,0.39-1.41,0.27-2.14,0.27c-16.83,0.01-33.66,0.01-50.49,0.01c-0.37,0-0.74,0.01-1.11-0.01
			c-1.84-0.13-3.04-1.26-3.01-2.83c0.03-1.58,1.21-2.67,3.11-2.68c7.62-0.03,15.23-0.02,22.85-0.02
			C97.81,141.53,98.98,141.53,100.14,141.53z"/>
		<path class="st2" d="M62.97,135.73c-0.47,0.93-0.68,1.67-1.14,2.2c-0.92,1.06-1.94,2.06-2.98,3c-1.26,1.13-2.92,1.06-3.96-0.05
			c-1.01-1.09-1.02-2.61,0.08-3.82c0.99-1.09,1.96-2.26,3.17-3.06c0.74-0.49,2.02-0.71,2.83-0.42
			C61.78,133.87,62.3,134.96,62.97,135.73z"/>
		<path class="st2" d="M99.74,107.27c-1.68,1.74-3.35,3.54-5.09,5.26c-2.91,2.87-6.36,2.86-9.26,0.01c-1.75-1.72-3.5-3.45-5.21-5.21
			c-2.68-2.75-2.68-6.25,0.03-9c1.76-1.79,3.61-3.5,5.71-5.53c-1.88-1.78-3.62-3.37-5.3-5.03c-3.27-3.25-3.27-6.56-0.06-9.79
			c1.64-1.65,3.28-3.32,4.95-4.94c2.74-2.66,6.25-2.68,9.01-0.01c1.8,1.75,3.5,3.61,5.53,5.71c1.8-1.89,3.41-3.64,5.08-5.32
			c3.2-3.22,6.57-3.21,9.8,0c1.61,1.6,3.23,3.19,4.81,4.82c2.83,2.9,2.81,6.37-0.06,9.27c-1.72,1.74-3.51,3.43-5.44,5.31
			c1.86,1.82,3.61,3.51,5.33,5.24c3.04,3.08,3.04,6.47,0.03,9.53c-1.68,1.7-3.36,3.41-5.08,5.07c-2.77,2.68-6.22,2.67-9-0.01
			c-1.76-1.7-3.49-3.45-5.24-5.17C100.23,107.45,100.16,107.44,99.74,107.27z M116.49,83c-0.46-0.55-0.7-0.9-1-1.2
			c-1.55-1.57-3.07-3.18-4.73-4.64c-0.3-0.27-1.38-0.1-1.75,0.24c-1.81,1.65-3.5,3.44-5.24,5.17c-2.73,2.7-4.81,2.68-7.57-0.06
			c-1.7-1.69-3.42-3.35-5.06-5.09c-0.83-0.88-1.43-0.87-2.25,0.01c-1.42,1.53-2.91,2.99-4.43,4.43c-0.75,0.71-0.77,1.24-0.01,1.96
			c1.77,1.7,3.49,3.46,5.22,5.2c2.79,2.8,2.78,4.86-0.05,7.7c-1.69,1.7-3.43,3.35-5.04,5.11c-0.34,0.37-0.52,1.44-0.26,1.73
			c1.75,1.96,3.64,3.79,5.72,5.9c2.17-2.21,4.17-4.27,6.2-6.31c2.72-2.73,4.85-2.73,7.55-0.02c2.03,2.03,4.03,4.08,5.95,6.02
			c2.26-2.27,4.31-4.34,6.58-6.62c-1.91-1.88-3.97-3.88-6-5.9c-2.69-2.69-2.69-4.87,0-7.56C112.34,87.04,114.4,85.05,116.49,83z"/>
		<path class="st2" d="M144.36,94.57c0.67,0.55,1.68,1.01,2.01,1.76c0.33,0.76,0.32,2.11-0.16,2.7c-1.46,1.79-3.13,3.44-4.89,4.95
			c-1.09,0.93-2.45,0.76-3.49-0.31c-1.03-1.05-1.21-2.38-0.23-3.48c1.49-1.7,3.14-3.26,4.79-4.81
			C142.8,95.01,143.48,94.92,144.36,94.57z"/>
		<path class="st2" d="M143.12,84.52c2.17-0.03,3.74,2.16,2.63,3.79c-1.15,1.67-2.7,3.15-4.34,4.34c-0.59,0.43-2.28,0.12-2.89-0.46
			c-0.62-0.59-1.08-2.32-0.67-2.86c1.28-1.72,2.99-3.14,4.56-4.64C142.59,84.5,142.98,84.54,143.12,84.52z"/>
	</g>
</g>
</svg>
