<?xml version="1.0" encoding="utf-8"?>
<!-- Generator: Adobe Illustrator 24.1.3, SVG Export Plug-In . SVG Version: 6.00 Build 0)  -->
<svg version="1.1" xmlns="http://www.w3.org/2000/svg" xmlns:xlink="http://www.w3.org/1999/xlink" x="0px" y="0px"
	 viewBox="0 0 200 200" style="enable-background:new 0 0 200 200;" xml:space="preserve">
<style type="text/css">
	.st0{display:none;}
	.st1{display:inline;fill:#FFFFFF;stroke:#000000;stroke-width:0.8168;stroke-miterlimit:10;}
	.st2{fill:#010101;}
</style>
<g id="Layer_2" class="st0">
	<rect x="5.64" y="5.64" class="st1" width="188.72" height="188.72"/>
</g>
<g id="Layer_1">
	<g>
		<path class="st2" d="M139.13,194.48c-35.07,0-70.14,0-105.2,0c-0.22-0.1-0.43-0.25-0.65-0.28c-4.25-0.67-7.7-2.7-10.44-6.01
			c-2.94-3.56-3.83-7.7-3.83-12.2c0.03-34.32,0.01-68.63,0.01-102.95c0-7.44,0.14-14.89-0.04-22.32
			c-0.22-9.13,5.55-15.89,12.78-17.64c0.54-0.13,1.17-0.88,1.34-1.46c1.82-6.16,5.81-10.09,11.91-12.01
			c0.62-0.19,1.36-0.83,1.56-1.43C49.34,9.81,55.22,5.53,64.1,5.52c9.78-0.01,19.56,0,29.34,0c23.19,0,46.38,0.01,69.56,0
			c5.8,0,10.69,1.92,14.37,6.55c2.78,3.5,3.62,7.54,3.62,11.91c-0.02,30.26-0.01,60.51-0.01,90.77c0,11.56-0.12,23.13,0.04,34.68
			c0.13,9.03-5.56,15.71-12.74,17.49c-0.58,0.14-1.22,0.97-1.42,1.6c-1.84,5.99-5.69,9.95-11.69,11.72
			c-1.17,0.35-1.71,0.91-1.98,2.04c-0.66,2.76-2.15,5.05-4.08,7.1C146.39,192.27,142.89,193.63,139.13,194.48z M25.77,113.49
			c0,20.91,0,41.82,0.01,62.74c0,1.22,0.01,2.48,0.3,3.66c1.23,5.08,5.17,7.87,11,7.88c32.85,0.01,65.7,0,98.55,0
			c7.57,0,11.62-4.05,11.62-11.62c0-41.76,0-83.53,0-125.29c0-7.58-4.01-11.61-11.6-11.61c-32.79-0.01-65.58-0.01-98.36,0.01
			c-1.34,0-2.73,0.08-4.02,0.42c-4.74,1.24-7.48,5.14-7.49,10.52C25.76,71.3,25.77,92.4,25.77,113.49z M153.97,173.47
			c4.55-1.6,6.79-5.18,6.79-10.57c0.01-41.88,0.01-83.75-0.01-125.63c0-1.34-0.08-2.73-0.42-4.01c-1.26-4.79-5.15-7.47-10.72-7.47
			c-33.09,0-66.18,0-99.26,0c-0.62,0-1.23,0-1.84,0.05c-3.86,0.29-7.43,3.07-8.35,6.66c0.76,0,1.48,0,2.19,0
			c31.18,0,62.36,0,93.54,0c4.16,0,8.04,0.9,11.39,3.5c4.78,3.72,6.71,8.68,6.71,14.65c-0.04,40.09-0.02,80.18-0.02,120.28
			C153.97,171.71,153.97,172.49,153.97,173.47z M167.52,159.86c0.39-0.05,0.58-0.03,0.74-0.1c0.39-0.17,0.78-0.36,1.14-0.59
			c3.56-2.26,4.86-5.58,4.86-9.71c-0.04-41.95-0.02-83.9-0.03-125.85c0-7.29-4.11-11.37-11.48-11.37c-32.85,0-65.7,0-98.55,0.01
			c-1.16,0-2.35,0.06-3.48,0.31c-3.46,0.79-5.83,2.87-7.3,6.47c0.98,0,1.69,0,2.41,0c31.07,0,62.14,0.01,93.2-0.01
			c4.23,0,8.18,0.76,11.62,3.38c4.88,3.71,6.88,8.76,6.88,14.77c-0.01,40.17-0.01,80.33-0.01,120.5
			C167.52,158.38,167.52,159.09,167.52,159.86z"/>
		<path class="st2" d="M46.03,52.74c0,8.12,0,15.93,0,23.73c0,0.98,0,1.96,0,3.1c8.95,0,17.83,0,26.95,0c0-4.34,0-8.73,0-13.21
			c2.31,0,4.38,0,6.6,0c0.05,0.45,0.14,0.92,0.14,1.39c0.01,4.86,0.02,9.72,0,14.58c-0.01,2.93-1.19,4.14-4.15,4.14
			c-10.7,0.03-21.41,0.02-32.11,0c-2.97-0.01-4.2-1.18-4.21-4.11c-0.04-10.76-0.04-21.53,0-32.29c0.01-2.78,1.24-4.01,3.91-4.02
			c7.32-0.03,14.64-0.01,21.96-0.01c0.3,0,0.6,0.07,1.02,0.12c0,2.15,0,4.27,0,6.58C59.46,52.74,52.85,52.74,46.03,52.74z"/>
		<path class="st2" d="M46.11,99.92c0,9.15,0,17.98,0,26.94c8.95,0,17.83,0,26.88,0c0-4.4,0-8.74,0-13.21c2.29,0,4.4,0,6.6,0
			c0.05,0.31,0.14,0.6,0.14,0.89c0.01,5.11,0.03,10.21,0,15.31c-0.02,2.51-1.21,3.84-3.69,3.85c-11.01,0.05-22.02,0.05-33.03,0
			c-2.48-0.01-3.66-1.26-3.74-3.82c-0.08-2.64-0.02-5.29-0.02-7.93c0-4.55-0.19-9.11,0.05-13.65c0.25-4.66-1.13-9.44,0.92-13.98
			c4.57-2.2,9.42-0.66,14.12-0.98c3.85-0.26,7.74-0.05,11.77-0.05c0,2.22,0,4.33,0,6.63C59.52,99.92,52.92,99.92,46.11,99.92z"/>
		<path class="st2" d="M73.05,174.1c0-4.5,0-8.79,0-13.21c2.22,0,4.34,0,6.54,0c0.05,0.31,0.13,0.6,0.13,0.89
			c0.01,5.11,0.03,10.21,0,15.31c-0.02,2.51-1.21,3.83-3.69,3.85c-11.01,0.05-22.02,0.05-33.03,0c-2.59-0.01-3.72-1.34-3.75-4.19
			c-0.04-4.06-0.01-8.12-0.01-12.18c0-6.46-0.01-12.92,0-19.37c0.01-3.58,1.07-4.67,4.58-4.67c7.37-0.01,14.75,0,22.29,0
			c0,2.22,0,4.33,0,6.63c-6.58,0-13.19,0-19.93,0c0,9.07,0,17.94,0,26.94C55.06,174.1,63.94,174.1,73.05,174.1z"/>
		<path class="st2" d="M86.72,69.56c-0.11-0.31-0.18-0.42-0.19-0.54c-0.49-6.15-0.49-6.15,5.57-6.15c13.09,0,26.18,0,39.26,0
			c0.72,0,1.44,0,2.25,0c0,2.35,0,4.47,0,6.69C117.92,69.56,102.34,69.56,86.72,69.56z"/>
		<path class="st2" d="M133.55,116.8c-15.62,0-31.2,0-47.05,0c0-1.98-0.04-3.92,0.04-5.86c0.01-0.29,0.57-0.67,0.95-0.79
			c0.45-0.14,0.97-0.04,1.47-0.04c14.07,0,28.14,0,42.22,0c0.73,0,1.46,0,2.38,0C133.55,112.39,133.55,114.53,133.55,116.8z"/>
		<path class="st2" d="M133.62,157.35c0,2.35,0,4.47,0,6.69c-15.7,0-31.27,0-47.11,0c0-1.99-0.04-3.94,0.04-5.88
			c0.01-0.28,0.59-0.73,0.95-0.77c0.91-0.11,1.84-0.04,2.76-0.04c13.7,0,27.4,0,41.11,0C132.09,157.35,132.81,157.35,133.62,157.35z
			"/>
		<path class="st2" d="M133.58,56.04c-15.68,0-31.27,0-46.97,0c0-2.19,0-4.3,0-6.53c15.66,0,31.23,0,46.97,0
			C133.58,51.62,133.58,53.73,133.58,56.04z"/>
		<path class="st2" d="M86.57,82.94c0-2.2,0-4.26,0-6.44c15.71,0,31.34,0,47.06,0c0,2.15,0,4.21,0,6.44
			C118.01,82.94,102.38,82.94,86.57,82.94z"/>
		<path class="st2" d="M86.57,103.2c0-2.18,0-4.24,0-6.43c15.71,0,31.33,0,47.06,0c0,2.14,0,4.21,0,6.43
			C118.01,103.2,102.38,103.2,86.57,103.2z"/>
		<path class="st2" d="M133.63,123.75c0,2.24,0,4.31,0,6.48c-15.68,0-31.26,0-47,0c0-2.13,0-4.24,0-6.48
			C102.27,123.75,117.89,123.75,133.63,123.75z"/>
		<path class="st2" d="M86.64,143.97c15.69,0,31.27,0,46.98,0c0,2.2,0,4.3,0,6.52c-15.66,0-31.24,0-46.98,0
			C86.64,148.38,86.64,146.28,86.64,143.97z"/>
		<path class="st2" d="M86.57,177.42c0-2.2,0-4.27,0-6.44c15.72,0,31.34,0,47.06,0c0,2.15,0,4.22,0,6.44
			C118.01,177.42,102.38,177.42,86.57,177.42z"/>
		<path class="st2" d="M55.65,60.65c1.03,1.22,2.29,2.71,3.58,4.25c5.01-5.02,9.77-9.79,14.58-14.61c1.68,1.8,3.14,3.36,4.68,5.01
			c-0.17,0.2-0.46,0.58-0.79,0.91c-5,5.01-9.99,10.01-15,15c-2.39,2.38-4,2.36-6.43-0.03c-1.93-1.9-3.86-3.78-5.86-5.73
			C52.15,63.85,53.76,62.38,55.65,60.65z"/>
		<path class="st2" d="M50.46,112.51c1.61-1.62,3.08-3.09,4.85-4.87c1.29,1.55,2.56,3.08,3.85,4.63c5.11-5.11,9.83-9.84,14.6-14.62
			c1.61,1.78,3.08,3.39,4.64,5.11c-3.37,3.37-7.02,7.01-10.67,10.66c-1.87,1.87-3.71,3.77-5.63,5.59c-1.64,1.56-3.36,1.69-4.93,0.22
			C54.88,117.11,52.74,114.82,50.46,112.51z"/>
		<path class="st2" d="M73.5,144.76c2,1.93,3.54,3.41,5.09,4.91c-5.57,5.6-11.08,11.21-16.68,16.74c-1.59,1.57-3.37,1.43-5.08-0.19
			c-2.14-2.03-4.22-4.13-6.2-6.08c1.65-1.61,3.21-3.12,4.95-4.82c0.99,1.11,2.28,2.56,3.65,4.1
			C64.17,154.34,68.86,149.52,73.5,144.76z"/>
	</g>
</g>
</svg>
