<?xml version="1.0" encoding="utf-8"?>
<!-- Generator: Adobe Illustrator 24.1.3, SVG Export Plug-In . SVG Version: 6.00 Build 0)  -->
<svg version="1.1" xmlns="http://www.w3.org/2000/svg" xmlns:xlink="http://www.w3.org/1999/xlink" x="0px" y="0px"
	 viewBox="0 0 200 200" style="enable-background:new 0 0 200 200;" xml:space="preserve">
<style type="text/css">
	.st0{display:none;}
	.st1{display:inline;fill:#FFFFFF;stroke:#000000;stroke-width:0.8168;stroke-miterlimit:10;}
	.st2{fill:#010101;}
</style>
<g id="Layer_2" class="st0">
	<rect x="5.64" y="5.64" class="st1" width="188.72" height="188.72"/>
</g>
<g id="Layer_1">
	<g>
		<path class="st2" d="M184.82,162.91c2.32,0,4.27-0.04,6.22,0.01c1.82,0.05,3.12,1.05,3.16,2.85c0.09,4.97,0.4,10-0.17,14.92
			c-0.94,8.18-7.56,13.64-15.86,13.65c-18.08,0.03-36.15,0.01-54.23,0.01c-33.73,0-67.46,0-101.19,0
			c-10.62,0-17.11-6.51-17.11-17.15c0-3.15,0-6.29,0-9.43c0-4.11,0.77-4.86,4.96-4.86c1.37,0,2.74,0,4.32,0
			c-0.31-0.61-0.52-1.06-0.77-1.48c-1.5-2.54-2.23-5.28-2.23-8.23c0.01-31.25-0.01-62.5,0.01-93.74
			c0.01-9.19,6.85-15.98,16.05-16.03c6.22-0.04,12.44-0.08,18.67,0.04c1.7,0.03,2.46-0.41,3.04-2.09
			c7.83-22.65,30.12-37.63,53.97-35.52c22.72,2.01,38.29,14.15,46.57,35.45c0.61,1.56,1.2,2.21,2.99,2.17
			c6.15-0.14,12.31-0.07,18.47-0.05c9.46,0.03,16.27,6.77,16.28,16.19c0.02,31.12,0,62.23,0.02,93.35
			C188,156.47,186.99,159.65,184.82,162.91z M126.33,123.71c-2.79-4.83-5.52-9.55-8.21-14.22c-16.94,5.53-32.87,3.88-47.57-5.78
			C55.78,94,48.11,79.85,46.57,62.39c-5.35,0-10.49,0-15.65,0c0,29.34,0,58.57,0,87.83c34.46,0,68.79,0,103.36,0
			c-0.41-0.79-0.71-1.42-1.05-2.01c-3.4-5.9-6.8-11.78-10.2-17.68c-1.62-2.82-1.26-4.08,1.57-5.75
			C125.15,124.45,125.69,124.11,126.33,123.71z M80.94,169.33c-23.03,0-45.97,0-69.01,0c0,2.69,0,5.24,0,7.78
			c0,7.35,3.61,10.94,10.98,10.94c51.4,0,102.79,0,154.19,0c0.65,0,1.31,0.02,1.96-0.02c3.8-0.21,7.62-2.71,8.3-6.39
			c0.74-4.04,0.59-8.24,0.83-12.46c-5.83,0-11.13-0.05-16.43,0.05c-0.9,0.02-2.01,0.5-2.64,1.14c-6.26,6.33-16.3,6.34-22.57,0.02
			c-0.64-0.65-1.74-1.15-2.64-1.17c-7.79-0.09-15.58-0.05-23.37-0.05c-0.56,0-1.12,0.07-1.73,0.12c0,1.18,0.02,2.16,0,3.14
			c-0.14,5.16-4.11,9.23-9.26,9.3c-6.41,0.08-12.83,0.07-19.25,0c-4.33-0.05-7.94-2.99-8.88-7.23
			C81.05,172.88,81.09,171.15,80.94,169.33z M52.51,59.3c0.03,25.91,21.12,47.1,46.91,47.12c26.44,0.03,47.73-21.14,47.69-47.41
			c-0.04-25.97-21.16-47.03-47.18-47.06C73.9,11.93,52.47,33.32,52.51,59.3z M142.69,114.27c0.54-0.28,0.84-0.42,1.12-0.58
			c3.92-2.17,4.66-1.96,6.94,1.98c5.69,9.85,11.38,19.71,17.08,29.56c0.31,0.53,0.66,1.04,1.19,1.88c0-28.5,0-56.59,0-84.76
			c-5.26,0-10.41,0-15.7,0c-1.22,15.08-7.49,27.62-18.88,37.62C137.2,104.78,139.9,109.46,142.69,114.27z M47.34,49.7
			c-6.61,0-12.95-0.02-19.29,0.01c-5.85,0.02-9.82,4.03-9.82,9.93c-0.01,31.11-0.01,62.22,0,93.33c0,5.9,3.98,9.92,9.83,9.93
			c37.32,0.01,74.65,0.01,111.97,0c0.47,0,0.94-0.1,1.57-0.17c-0.83-1.45-1.68-2.63-2.23-3.94c-0.74-1.76-1.89-2.22-3.78-2.22
			c-35.62,0.07-71.24,0.05-106.87,0.05c-3.05,0-4.2-1.03-4.2-3.85c-0.01-30.98-0.01-61.96,0-92.94c0-2.7,1.12-3.81,3.82-3.83
			c3.8-0.02,7.6-0.01,11.39-0.01c2.27,0,4.53,0,6.86,0C46.85,53.81,47.08,51.87,47.34,49.7z M129.51,129.22
			c6.9,11.94,13.62,23.7,20.48,35.37c2.05,3.48,6.28,4.95,10.09,3.96c6.38-1.65,9.05-8.37,5.62-14.37
			c-6.34-11.07-12.74-22.11-19.12-33.15c-0.22-0.38-0.52-0.72-0.84-1.17C140.34,122.97,135.03,126.03,129.51,129.22z M153.3,55.99
			c6,0,11.76,0,17.52,0c3.72,0,4.59,0.88,4.59,4.65c0,30.26,0,60.53,0,90.79c0,1.84,0.22,3.73-1.75,4.87
			c-0.2,0.12-0.29,0.56-0.29,0.85c-0.03,1.81-0.01,3.63-0.01,5.45c4.84-0.26,8.34-4.3,8.34-9.65c0.01-31.11,0.01-62.23,0-93.34
			c0-5.89-3.99-9.87-9.86-9.89c-5.83-0.02-11.66-0.01-17.49,0c-0.56,0-1.13,0.06-1.77,0.1C152.82,51.91,153.05,53.85,153.3,55.99z
			 M112.52,169.32c-8.51,0-16.77,0-25.13,0c0,1.1-0.05,2.08,0.01,3.04c0.12,1.85,1.27,3.07,3.14,3.09c6.27,0.06,12.54,0.06,18.82,0
			c1.86-0.02,3.02-1.24,3.15-3.09C112.58,171.4,112.52,170.42,112.52,169.32z M137.25,117.45c-2.67-4.62-5.27-9.12-7.89-13.66
			c-1.88,1.12-3.59,2.14-5.39,3.21c2.65,4.59,5.25,9.08,7.87,13.61C133.75,119.49,135.43,118.51,137.25,117.45z"/>
		<path class="st2" d="M88.95,125.17c7.53,0,15.06-0.02,22.59,0.03c0.94,0.01,2.22,0.08,2.74,0.66c0.73,0.81,1.28,2.16,1.19,3.22
			c-0.12,1.48-1.39,2.33-2.95,2.35c-2.62,0.05-5.24,0.02-7.86,0.02c-12.51,0-25.02,0-37.52,0c-0.52,0-1.05,0.02-1.57-0.01
			c-2.01-0.1-3.33-1.36-3.32-3.14c0-1.79,1.31-3.1,3.33-3.12c4.85-0.05,9.69-0.02,14.54-0.02
			C83.06,125.17,86.01,125.17,88.95,125.17z"/>
		<path class="st2" d="M88.97,137.75c7.66,0,15.33-0.01,22.99,0.01c2.36,0.01,3.84,1.39,3.7,3.35c-0.13,1.76-1.46,2.9-3.54,2.92
			c-3.99,0.03-7.99,0.01-11.99,0.01c-11.26,0-22.53,0.03-33.79-0.05c-1.09-0.01-2.5-0.34-3.16-1.06c-0.64-0.7-0.83-2.18-0.61-3.18
			c0.32-1.51,1.7-2.01,3.22-2c6.03,0.01,12.05,0,18.08,0C85.56,137.75,87.27,137.75,88.97,137.75z"/>
		<path class="st2" d="M71.58,118.88c-1.96,0-3.93,0.04-5.89-0.01c-2.13-0.05-3.49-1.36-3.44-3.21c0.05-1.78,1.37-3.03,3.4-3.05
			c3.99-0.04,7.99-0.04,11.98,0c2.12,0.02,3.49,1.36,3.45,3.21c-0.05,1.77-1.38,3.01-3.4,3.06
			C75.64,118.91,73.61,118.88,71.58,118.88z"/>
		<path class="st2" d="M49.64,112.61c1.11,0,2.23-0.07,3.34,0.02c1.74,0.14,2.94,1.45,2.95,3.09c0.01,1.63-1.19,3.03-2.92,3.11
			c-2.22,0.11-4.45,0.11-6.68,0c-1.74-0.08-2.94-1.45-2.95-3.09c-0.01-1.64,1.18-2.97,2.92-3.12
			C47.41,112.53,48.53,112.61,49.64,112.61z"/>
		<path class="st2" d="M49.47,131.44c-1.05,0-2.1,0.07-3.14-0.02c-1.74-0.15-2.94-1.47-2.94-3.1c0-1.64,1.19-3.02,2.92-3.11
			c2.22-0.11,4.45-0.1,6.68,0c1.74,0.08,2.94,1.45,2.94,3.09c0.01,1.63-1.19,2.97-2.93,3.12C51.83,131.51,50.64,131.44,49.47,131.44
			z"/>
		<path class="st2" d="M49.58,144.02c-1.05,0-2.1,0.06-3.14-0.01c-1.85-0.13-3.1-1.48-3.06-3.19c0.04-1.64,1.25-2.96,3-3.04
			c2.16-0.09,4.32-0.09,6.48,0c1.85,0.07,3.1,1.47,3.06,3.18c-0.04,1.63-1.26,2.92-3,3.05C51.81,144.09,50.7,144.02,49.58,144.02z"
			/>
		<path class="st2" d="M59.09,59.11c0.01-22.47,18.31-40.84,40.69-40.85c22.78-0.02,41.07,18.31,41.03,41.09
			c-0.04,22.55-18.46,40.69-41.27,40.65C77.35,99.97,59.08,81.48,59.09,59.11z M65.33,58.98C65.3,77.98,80.77,93.65,99.61,93.71
			c19.3,0.06,34.88-15.32,34.92-34.46c0.03-19.21-15.46-34.72-34.67-34.71C80.84,24.55,65.36,40,65.33,58.98z"/>
		<path class="st2" d="M109.39,59.1c0-4.98-0.01-9.96,0-14.93c0.01-2.81,1.11-3.88,3.95-3.9c2.68-0.01,5.37-0.02,8.06,0
			c2.47,0.02,3.69,1.16,3.7,3.56c0.03,10.22,0.03,20.44,0,30.66c-0.01,2.31-1.22,3.47-3.55,3.5c-2.88,0.04-5.76,0.04-8.64,0
			c-2.31-0.04-3.48-1.22-3.5-3.56C109.37,69.32,109.39,64.21,109.39,59.1z M118.69,71.63c0-8.43,0-16.71,0-24.98
			c-1.03,0-1.92,0-2.91,0c0,8.36,0,16.63,0,24.98C116.77,71.63,117.66,71.63,118.69,71.63z"/>
		<path class="st2" d="M106.24,63.85c0,3.47,0.02,6.94-0.01,10.41c-0.02,2.56-1.17,3.7-3.73,3.73c-2.82,0.03-5.63,0.04-8.45,0
			c-2.32-0.04-3.51-1.21-3.52-3.53c-0.03-7.07-0.03-14.15,0-21.22c0.01-2.33,1.2-3.49,3.53-3.52c2.88-0.04,5.76-0.04,8.64,0
			c2.32,0.03,3.5,1.2,3.53,3.53C106.27,56.77,106.24,60.31,106.24,63.85z M96.96,56.02c0,5.21,0,10.38,0,15.55c1.03,0,1.97,0,2.84,0
			c0-5.27,0-10.39,0-15.55C98.8,56.02,97.96,56.02,96.96,56.02z"/>
		<path class="st2" d="M87.38,68.65c0,1.97,0.04,3.93-0.01,5.9c-0.05,2.21-1.22,3.4-3.42,3.44c-2.95,0.05-5.89,0.05-8.84,0
			c-2.21-0.04-3.4-1.22-3.43-3.42c-0.05-4-0.05-7.99,0-11.99c0.02-2.21,1.21-3.4,3.41-3.43c2.95-0.05,5.89-0.05,8.84,0
			c2.21,0.04,3.38,1.21,3.44,3.42C87.42,64.59,87.38,66.62,87.38,68.65z M80.95,71.63c0-2.17,0-4.16,0-6.12c-1.03,0-1.92,0-2.89,0
			c0,2.08,0,4.06,0,6.12C79.06,71.63,79.95,71.63,80.95,71.63z"/>
	</g>
</g>
</svg>
