<?xml version="1.0" encoding="utf-8"?>
<!-- Generator: Adobe Illustrator 24.1.3, SVG Export Plug-In . SVG Version: 6.00 Build 0)  -->
<svg version="1.1" xmlns="http://www.w3.org/2000/svg" xmlns:xlink="http://www.w3.org/1999/xlink" x="0px" y="0px"
	 viewBox="0 0 200 200" style="enable-background:new 0 0 200 200;" xml:space="preserve">
<style type="text/css">
	.st0{display:none;}
	.st1{display:inline;fill:#FFFFFF;stroke:#000000;stroke-width:0.8168;stroke-miterlimit:10;}
	.st2{fill:#010101;}
</style>
<g id="Layer_2" class="st0">
	<rect x="5.64" y="5.64" class="st1" width="188.72" height="188.72"/>
</g>
<g id="Layer_1">
	<g>
		<path class="st2" d="M100.07,5.64c52.25,0.1,94.45,42.41,94.29,94.53c-0.17,52.25-42.5,94.38-94.64,94.19S5.48,151.87,5.64,99.82
			C5.8,47.64,48.02,5.54,100.07,5.64z M145.59,96.08c13.62,0,27.29,0,41.13,0c-1.05-19.27-7.56-36.2-19.32-50.73
			c-9.17,3.86-18.03,7.6-26.82,11.3c1.08,6.26,2.43,12.73,3.26,19.27C144.68,82.53,145.02,89.2,145.59,96.08z M145.32,103.9
			c-0.25,13.56-1.91,26.74-5,39.29c9.15,3.87,18.01,7.61,27.09,11.45c11.74-14.61,18.3-31.51,19.3-50.74
			C172.82,103.9,159.21,103.9,145.32,103.9z M59.44,143.29c-3.29-12.78-4.67-26.01-5.12-39.37c-13.77,0-27.3,0-41.09,0
			c1.04,19.24,7.56,36.15,19.3,50.73C41.6,150.82,50.4,147.11,59.44,143.29z M32.58,45.36C20.81,60.02,14.25,76.92,13.3,96.04
			c13.89,0,27.43,0,41.06,0c0.39-13.53,1.94-26.75,5.08-39.32C50.41,52.9,41.67,49.2,32.58,45.36z M66.76,58.7
			c-3.03,12.09-4.47,24.64-4.73,37.34c11.55,0,22.81,0,34.05,0c0-11.36,0-22.57,0-33.43C86.3,61.31,76.68,60.03,66.76,58.7z
			 M66.75,141.27c9.96-1.34,19.62-2.64,29.32-3.94c0-10.97,0-22.16,0-33.39c-11.39,0-22.64,0-34.06,0
			C62.31,116.73,63.72,129.24,66.75,141.27z M103.94,62.6c0,10.95,0,22.21,0,33.51c11.27,0,22.4,0,33.75,0
			c-0.18-12.85-1.68-25.39-4.69-37.35C123.15,60.06,113.61,61.33,103.94,62.6z M103.87,137.32c9.82,1.32,19.41,2.61,29.17,3.92
			c2.94-12.09,4.52-24.56,4.65-37.3c-11.4,0-22.58,0-33.82,0C103.87,115.24,103.87,126.38,103.87,137.32z M96.05,186.27
			c0-13.76,0-27.24,0-40.81c-9.2,0.24-18.1,1.39-27.13,3.68c1.04,2.86,1.91,5.54,2.97,8.15c3.43,8.41,7.6,16.38,14.17,22.84
			C88.87,182.89,92.02,185.14,96.05,186.27z M96.06,54.51c0-13.69,0-27.14,0-40.62c-11.95,2.64-22.94,22.14-26.87,37.07
			C77.97,53.13,86.87,54.3,96.06,54.51z M103.88,186.03c10.34-2.56,25.25-23.38,26.69-37.14c-8.75-2.02-17.6-3.29-26.69-3.46
			C103.88,159.07,103.88,172.48,103.88,186.03z M130.62,51c-1.8-8.68-8.9-22.7-15.18-29.16c-2.58-2.66-5.81-4.71-8.81-6.94
			c-0.73-0.54-1.73-0.71-2.67-1.07c0,13.72,0,27.12,0,40.62C113.09,54.27,121.91,53.1,130.62,51z M138.37,150.62
			c-4.07,12.45-9.04,23.75-17.34,33.38c15.83-3.81,29.33-11.6,41.24-23.52C154.08,157.11,146.32,153.9,138.37,150.62z M120.78,16.04
			c8.52,9.58,13.52,20.87,17.55,33.28c7.95-3.29,15.71-6.5,23.59-9.76C154.94,30.21,130.31,16.19,120.78,16.04z M78.38,184.07
			c-3.23-5.14-6.89-10.22-9.75-15.72c-2.86-5.49-4.94-11.38-7.39-17.19c-7.92,2.47-15.61,5.56-23.11,9.68
			C49.71,172.44,63.14,180.2,78.38,184.07z M78.77,16.03c-15.69,3.85-29.13,11.53-40.94,23.45c8.15,3.37,15.83,6.55,23.67,9.79
			C65.52,36.83,70.48,25.59,78.77,16.03z"/>
	</g>
</g>
</svg>
