<?xml version="1.0" encoding="utf-8"?>
<!-- Generator: Adobe Illustrator 24.1.3, SVG Export Plug-In . SVG Version: 6.00 Build 0)  -->
<svg version="1.1" xmlns="http://www.w3.org/2000/svg" xmlns:xlink="http://www.w3.org/1999/xlink" x="0px" y="0px"
	 viewBox="0 0 200 200" style="enable-background:new 0 0 200 200;" xml:space="preserve">
<style type="text/css">
	.st0{display:none;}
	.st1{display:inline;fill:#FFFFFF;stroke:#000000;stroke-width:0.8168;stroke-miterlimit:10;}
	.st2{fill:#010101;}
</style>
<g id="Layer_2" class="st0">
	<rect x="5.64" y="5.64" class="st1" width="188.72" height="188.72"/>
</g>
<g id="Layer_1">
	<g>
		<path class="st2" d="M112.53,5.64c1.23,0.33,2.48,0.62,3.7,1.01c8.96,2.81,15.06,10.82,15.15,20.25
			c0.11,11.79,0.05,23.59,0.03,35.38c-0.01,3.64-2.48,6.26-5.82,6.29c-3.34,0.03-5.94-2.7-5.95-6.4
			c-0.03-11.49,0.01-22.97-0.02-34.46c-0.02-5.4-3.26-9.3-8.37-10.16c-0.54-0.09-1.1-0.11-1.65-0.11
			c-16.13-0.01-32.26-0.01-48.39-0.01c-0.24,0-0.49,0.02-1.2,0.06c0.86,0.34,1.31,0.55,1.78,0.71c3.98,1.34,7.98,2.64,11.95,4.03
			c6.17,2.16,10.36,7.95,10.47,14.49c0.11,6.33,0.04,12.65,0.04,18.98c0,33.54,0,67.07,0,100.61c0,0.79,0,1.58,0,2.56
			c1.21,0.07,2.08,0.21,3.22-0.04c6.1-1.37,12.4-1.24,18.56-0.14c8.17,1.46,13.58-2.77,13.6-10.18c0.03-11.36-0.01-22.73,0.02-34.09
			c0.01-4.5,3.41-7.36,7.42-6.33c2.38,0.61,4.13,2.68,4.33,5.14c0.04,0.49,0.04,0.98,0.04,1.47c0,11.3,0.03,22.6-0.01,33.91
			c-0.04,12.83-9.43,22.15-22.27,22.16c-7.56,0.01-15.11,0-22.67,0c-0.67,0-1.33,0-2.24,0c0,2.21,0,4.28,0,6.35
			c-0.01,9.29-4.09,14.61-13.08,17.03c-0.11,0.03-0.19,0.14-0.28,0.22c-1.6,0-3.19,0-4.79,0c-1.1-0.35-2.2-0.68-3.29-1.04
			c-15.27-5.07-30.56-10.13-45.82-15.25c-5.91-1.98-9.69-6-11.04-12.18c-0.05-0.23-0.2-0.43-0.31-0.65V19.23
			c0-0.21,0.05-0.42,0.14-0.61c1.16-2.46,2.09-5.08,3.61-7.28c2.32-3.35,6.01-4.81,9.89-5.7C50.36,5.64,81.45,5.64,112.53,5.64z
			 M72.44,107.82c0-23.21,0-46.43,0-69.64c0-3.15-0.75-4.24-3.61-5.2c-15.12-5.04-30.23-10.08-45.36-15.1
			c-3.7-1.23-6.04,0.48-6.04,4.38c0,46.61,0,93.22,0,139.83c0,2.8,0.85,3.98,3.54,4.88c4.36,1.46,8.73,2.9,13.09,4.35
			c10.7,3.57,21.4,7.14,32.1,10.7c4.07,1.35,6.26-0.25,6.28-4.57c0-0.49,0-0.98,0-1.47C72.44,153.26,72.44,130.54,72.44,107.82z"/>
		<path class="st2" d="M194.36,90.05c-1.22,1.42-2.35,2.91-3.67,4.24c-9.05,9.1-18.13,18.18-27.22,27.23
			c-3.57,3.55-9,2.27-10.19-2.37c-0.61-2.36,0.2-4.31,1.9-6c5.84-5.8,11.65-11.63,17.46-17.45c0.42-0.42,0.8-0.86,1.48-1.59
			c-1,0-1.65,0-2.29,0c-19.16,0-38.32,0.01-57.48,0c-4.45,0-7.33-3.46-6.26-7.45c0.64-2.37,2.69-4.1,5.17-4.31
			c0.67-0.06,1.35-0.03,2.02-0.03c18.79,0,37.58,0,56.37,0c0.67,0,1.35,0,2.47,0c-0.65-0.7-1.06-1.16-1.49-1.6
			c-5.9-5.91-11.82-11.8-17.7-17.73c-1.94-1.96-2.37-4.46-1.29-6.77c1.04-2.23,3.39-3.73,5.83-3.31c1.31,0.23,2.78,0.84,3.71,1.76
			c9.89,9.73,19.69,19.56,29.5,29.38c0.67,0.67,1.13,1.54,1.69,2.31C194.36,87.59,194.36,88.82,194.36,90.05z"/>
	</g>
</g>
</svg>
