<?xml version="1.0" encoding="utf-8"?>
<!-- Generator: Adobe Illustrator 24.1.3, SVG Export Plug-In . SVG Version: 6.00 Build 0)  -->
<svg version="1.1" xmlns="http://www.w3.org/2000/svg" xmlns:xlink="http://www.w3.org/1999/xlink" x="0px" y="0px"
	 viewBox="0 0 200 200" style="enable-background:new 0 0 200 200;" xml:space="preserve">
<style type="text/css">
	.st0{display:none;}
	.st1{display:inline;fill:#FFFFFF;stroke:#000000;stroke-width:0.8168;stroke-miterlimit:10;}
	.st2{fill:#010101;}
</style>
<g id="Layer_2" class="st0">
	<rect x="5.64" y="5.64" class="st1" width="188.72" height="188.72"/>
</g>
<g id="Layer_1">
	<g>
		<path class="st2" d="M109.58,5.64c2.03,0.94,2.82,2.52,2.7,4.74c-0.12,2.14,0.03,4.3-0.05,6.45c-0.04,0.99,0.38,1.36,1.24,1.69
			c2.35,0.89,4.67,1.84,6.96,2.88c0.85,0.39,1.37,0.42,2.05-0.3c1.6-1.7,3.26-3.34,4.94-4.96c1.99-1.93,3.99-1.96,5.97-0.01
			c3.85,3.79,7.67,7.62,11.46,11.47c1.88,1.91,1.89,3.92,0.03,5.83c-1.93,1.97-3.96,3.84-5.78,5.6c1.24,3.15,2.32,6.01,3.53,8.81
			c0.18,0.42,1,0.78,1.54,0.8c2.33,0.09,4.67,0.01,7,0.05c2.72,0.04,4.1,1.39,4.12,4.08c0.03,5.47,0.03,10.93,0,16.4
			c-0.02,2.59-1.4,3.96-4,4.01c-2.33,0.05-4.67,0.08-7-0.01c-1.14-0.04-1.56,0.41-1.93,1.42c-0.84,2.3-1.8,4.56-2.83,6.78
			c-0.39,0.85-0.4,1.38,0.31,2.05c1.7,1.6,3.34,3.26,4.96,4.94c1.93,2,1.94,4,0,5.97c-3.8,3.85-7.62,7.67-11.47,11.46
			c-1.9,1.88-3.92,1.87-5.83,0.01c-1.97-1.92-3.88-3.92-5.67-5.74c-3.02,1.19-5.82,2.25-8.57,3.43c-0.46,0.2-0.93,0.93-0.96,1.44
			c-0.1,2.39-0.02,4.79-0.06,7.18c-0.05,2.72-1.4,4.06-4.09,4.11c-1.4,0.02-2.81,0-4.34,0c0,5.04,0,9.97,0,15.11
			c0.74,0,1.46,0,2.18,0c18.06,0,36.11,0,54.17,0c7.51,0,12.07,4.54,12.08,12.01c0.01,3.43,0,6.85,0,10.47
			c2.96,0,5.78,0.15,8.57-0.03c6.08-0.39,11.36,1.69,13.54,9.24c0,7.37,0,14.74,0,22.11c-0.22,0.63-0.44,1.27-0.68,1.89
			c-1.26,3.38-3.62,5.64-7.03,6.78c-1.72,0.57-3.3,0.33-4.46-1.21c-1.52-2.02-0.68-4.63,1.89-5.65c2.04-0.81,2.94-2.18,2.92-4.37
			c-0.05-5.71,0-11.42-0.02-17.14c-0.01-2.82-1.4-4.25-4.15-4.26c-9.52-0.02-19.04-0.02-28.56,0c-2.68,0.01-4.12,1.44-4.13,4.09
			c-0.03,5.83,0.01,11.67-0.02,17.5c-0.01,2.03,0.88,3.34,2.76,4.1c2.33,0.94,3.26,2.77,2.53,4.75c-0.77,2.11-2.73,2.91-5.15,2.1
			c-4.29-1.44-7.41-5.44-7.47-9.97c-0.09-6.45-0.1-12.9,0-19.35c0.08-4.95,3.62-9.45,8.5-10.21c3.66-0.57,7.46-0.31,11.2-0.41
			c0.77-0.02,1.54,0,2.38,0c0-3.59,0-6.91,0-10.22c0-3.68-1.19-4.89-4.82-4.89c-18.12,0-36.24,0-54.36,0c-0.64,0-1.29,0-1.91,0
			c0,5.17,0,10.06,0,15.12c3.7,0,7.31-0.04,10.92,0.01c6.2,0.08,11,4.79,11.07,10.96c0.07,6.2,0.06,12.41,0,18.61
			c-0.05,4.96-3.25,9.1-8,10.54c-0.4,0.12-0.8,0.28-1.2,0.42c-11.06,0-22.11,0-33.17,0c-0.57-0.21-1.14-0.41-1.71-0.61
			c-4.42-1.53-7.42-5.5-7.48-10.15c-0.07-6.32-0.09-12.65,0-18.97c0.08-5.96,4.87-10.68,10.86-10.79c3.67-0.07,7.34-0.01,11.12-0.01
			c0-5.03,0-9.92,0-15.12c-0.59,0-1.23,0-1.87,0c-4.73,0-9.46,0.01-14.18,0c-2.8-0.01-4.51-1.47-4.47-3.76
			c0.04-2.23,1.71-3.6,4.43-3.61c5.33-0.01,10.66,0,16.09,0c0-5.03,0-9.92,0-15.11c-1.38,0-2.82,0.02-4.27,0
			c-2.82-0.04-4.15-1.36-4.19-4.2c-0.03-2.33-0.05-4.67,0.01-7c0.03-0.98-0.36-1.37-1.24-1.7c-2.35-0.88-4.67-1.84-6.95-2.87
			c-0.84-0.38-1.38-0.4-2.05,0.32c-1.59,1.7-3.26,3.34-4.94,4.96c-2,1.93-4,1.94-5.96,0c-3.8-3.76-7.57-7.53-11.33-11.33
			c-2.04-2.06-2.06-4.05-0.04-6.09c1.9-1.91,3.87-3.76,5.65-5.48c-1.24-3.13-2.32-5.99-3.53-8.79c-0.18-0.42-1-0.79-1.53-0.81
			c-2.27-0.09-4.54-0.02-6.81-0.04c-2.98-0.03-4.31-1.34-4.32-4.25c-0.02-5.34-0.02-10.68,0-16.03c0.01-2.84,1.33-4.18,4.16-4.22
			c2.33-0.03,4.67-0.06,7,0.01c0.97,0.03,1.38-0.33,1.71-1.21c0.91-2.4,2-4.74,2.88-7.15c0.19-0.51,0.03-1.42-0.33-1.81
			c-1.56-1.73-3.28-3.32-4.91-4.99c-1.95-2-1.99-4-0.06-5.96c3.79-3.85,7.61-7.67,11.46-11.46c1.96-1.93,3.96-1.9,5.97,0.04
			c1.63,1.58,3.25,3.18,4.81,4.83c0.68,0.73,1.21,0.89,2.19,0.43c2.27-1.07,4.6-2,6.95-2.88c0.89-0.33,1.25-0.74,1.22-1.71
			c-0.07-2.15,0.07-4.3-0.05-6.45c-0.12-2.22,0.66-3.8,2.7-4.74C96.8,5.64,103.19,5.64,109.58,5.64z M130.15,98.26
			c2.48-2.48,4.73-4.73,7.15-7.16c-1.62-1.56-3.32-3.15-4.97-4.8c-2.08-2.08-2.03-3.25-0.75-5.89c1.68-3.46,3.21-7.01,4.46-10.64
			c1.06-3.09,1.81-3.95,5.03-3.96c2.24-0.01,4.49,0,6.75,0c0-3.38,0-6.49,0-9.77c-2.42,0-4.74,0.02-7.05,0
			c-2.77-0.03-3.73-1.01-4.63-3.54c-1.33-3.73-2.81-7.43-4.52-11c-1.3-2.72-1.38-3.88,0.82-6.03c1.65-1.61,3.39-3.13,4.85-4.47
			c-2.6-2.61-4.84-4.85-7.11-7.13c0.11-0.05,0.04-0.04,0,0c-1.61,1.6-3.22,3.21-4.84,4.8c-2.01,1.98-3.19,1.92-5.75,0.72
			c-3.64-1.71-7.39-3.23-11.17-4.59c-2.45-0.88-3.47-1.86-3.51-4.47c-0.03-2.38-0.01-4.75-0.01-7.31c-1.78,0-3.36,0-4.95,0
			c-1.57,0-3.15,0-4.82,0c0,2.53,0.01,4.8,0,7.06c-0.02,2.89-0.98,3.81-3.63,4.74c-3.68,1.29-7.32,2.76-10.83,4.46
			c-2.8,1.36-3.93,1.44-6.18-0.84c-1.59-1.61-3.11-3.28-4.59-4.85c-2.5,2.5-4.75,4.75-7.19,7.18c1.63,1.55,3.34,3.14,4.99,4.78
			c2.08,2.08,2.02,3.27,0.74,5.9c-1.66,3.4-3.21,6.88-4.42,10.46c-1.14,3.39-1.78,4.13-5.44,4.14c-2.12,0-4.24,0-6.47,0
			c0,3.1,0,5.92,0,8.73c0,0.29,0.07,0.58,0.12,1.04c2.39,0,4.72-0.02,7.04,0c2.77,0.03,3.73,1.01,4.62,3.55
			c1.3,3.68,2.73,7.34,4.43,10.84c1.42,2.92,1.51,4-0.87,6.33c-1.6,1.56-3.3,3.03-4.68,4.28c2.6,2.64,4.82,4.9,7.06,7.18
			c-0.08,0.04-0.01,0.02,0.03-0.02c1.57-1.55,3.14-3.12,4.71-4.67c2.17-2.14,3.3-2.08,6.05-0.76c3.51,1.7,7.15,3.18,10.83,4.47
			c2.69,0.94,3.65,1.84,3.68,4.71c0.02,2.31,0,4.63,0,7.11c1.79,0,3.38,0,4.96,0c1.57,0,3.15,0,4.66,0
			c0.08-0.39,0.13-0.51,0.13-0.63c0.01-2.21,0-4.42,0.03-6.63c0.03-2.66,1.02-3.62,3.46-4.51c3.84-1.39,7.63-2.95,11.34-4.67
			c2.43-1.13,3.66-1.18,5.59,0.76C126.96,94.85,128.57,96.6,130.15,98.26z M100.01,186.99c4.6,0,9.2,0.01,13.8,0
			c3.29-0.01,4.61-1.3,4.62-4.54c0.01-5.58,0.01-11.16,0-16.75c-0.01-3.17-1.33-4.51-4.45-4.51c-9.32-0.01-18.65-0.01-27.97,0
			c-3.05,0-4.42,1.35-4.43,4.35c-0.02,5.71-0.02,11.41,0,17.11c0.01,2.98,1.39,4.32,4.45,4.33C90.68,187,95.34,186.99,100.01,186.99
			z"/>
		<path class="st2" d="M5.64,163.03c0.6-1.4,1.04-2.91,1.85-4.17c2.1-3.28,5.22-4.95,9.11-5.02c3.62-0.07,7.24-0.01,11.05-0.01
			c0.04-0.57,0.11-1.1,0.11-1.62c0.01-3.32-0.04-6.63,0.02-9.95c0.11-6.07,4.86-10.8,10.94-10.91c2.39-0.05,4.79-0.04,7.18,0
			c2.36,0.04,3.98,1.59,3.96,3.7c-0.02,2.11-1.64,3.61-4.02,3.65c-2.15,0.04-4.3-0.01-6.45,0.01c-2.82,0.03-4.23,1.4-4.26,4.15
			c-0.03,3.56-0.01,7.11-0.01,10.95c0.84,0,1.61-0.02,2.38,0c3.74,0.1,7.53-0.16,11.19,0.41c4.89,0.76,8.43,5.24,8.51,10.2
			c0.1,6.45,0.1,12.9,0,19.34c-0.07,4.47-3.05,8.37-7.29,9.91c-0.63,0.23-1.26,0.45-1.89,0.68c-11.06,0-22.11,0-33.17,0
			c-4.86-1.29-7.94-4.34-9.21-9.21C5.64,177.77,5.64,170.4,5.64,163.03z M31.34,186.99c4.66,0,9.32,0.01,13.99,0
			c3.18-0.01,4.53-1.31,4.54-4.43c0.02-5.64,0.01-11.29,0-16.93c-0.01-3.05-1.35-4.43-4.34-4.43c-9.39-0.01-18.77-0.01-28.16,0
			c-3,0-4.34,1.38-4.35,4.42c-0.01,5.64-0.01,11.29,0,16.93c0.01,3.12,1.35,4.43,4.52,4.44C22.14,186.99,26.74,186.99,31.34,186.99z
			"/>
		<path class="st2" d="M167.45,194.36c-0.29-0.21-0.59-0.4-0.88-0.61c-1.44-1.04-2.06-2.43-1.5-4.14c0.54-1.69,1.79-2.62,3.58-2.58
			c1.7,0.04,2.88,0.97,3.4,2.58c0.55,1.72-0.07,3.1-1.5,4.14c-0.29,0.21-0.58,0.41-0.88,0.62
			C168.92,194.36,168.19,194.36,167.45,194.36z"/>
		<path class="st2" d="M62.76,138.69c-2.03,0-3.72-1.74-3.66-3.77c0.05-1.96,1.71-3.58,3.68-3.57c2.04,0,3.72,1.74,3.67,3.77
			C66.39,137.07,64.73,138.69,62.76,138.69z"/>
		<path class="st2" d="M118.42,60.99c-0.03,10.11-8.32,18.37-18.44,18.36c-10.18-0.01-18.48-8.38-18.41-18.58
			c0.07-10.09,8.41-18.32,18.53-18.27C110.21,42.55,118.45,50.87,118.42,60.99z M111.05,60.95c0.01-6.07-4.93-11.04-10.98-11.07
			C93.99,49.85,89,54.76,88.95,60.81c-0.05,6.15,4.94,11.18,11.07,11.17C106.07,71.97,111.04,67,111.05,60.95z"/>
		<path class="st2" d="M99.92,64.6c-2.04-0.05-3.69-1.81-3.59-3.84c0.09-1.96,1.79-3.54,3.75-3.5c2.03,0.05,3.69,1.82,3.59,3.84
			C103.57,63.06,101.88,64.65,99.92,64.6z"/>
	</g>
</g>
</svg>
