<?xml version="1.0" encoding="utf-8"?>
<!-- Generator: Adobe Illustrator 24.1.3, SVG Export Plug-In . SVG Version: 6.00 Build 0)  -->
<svg version="1.1" xmlns="http://www.w3.org/2000/svg" xmlns:xlink="http://www.w3.org/1999/xlink" x="0px" y="0px"
	 viewBox="0 0 200 200" style="enable-background:new 0 0 200 200;" xml:space="preserve">
<style type="text/css">
	.st0{display:none;}
	.st1{display:inline;fill:#FFFFFF;stroke:#000000;stroke-width:0.8168;stroke-miterlimit:10;}
	.st2{fill:#010101;}
</style>
<g id="Layer_2" class="st0">
	<rect x="5.64" y="5.64" class="st1" width="188.72" height="188.72"/>
</g>
<g id="Layer_1">
	<g>
		<path class="st2" d="M153.07,194.36c-4.01-1.64-5-4.87-4.43-9.12c-1.79,0-3.36,0-4.93,0c-5.13-0.01-7.3-2.16-7.3-7.25
			c0-26.09,0-52.19,0-78.28c0-0.72,0-1.44,0-2.34c-9.32,0-18.44,0-27.56,0c0.29-11.16,4.85-21.28,17.62-23.92
			c1.73-0.36,2.15-1.29,2.3-2.82c-0.39-0.24-0.79-0.51-1.2-0.75c-5.37-3.11-9.14-7.55-11.1-13.45c-0.37-1.12-0.81-1.65-2.12-1.74
			c-3.64-0.23-6.23-2.21-7.59-5.54c-1.33-3.25-0.78-6.34,1.35-9.19c0.56-0.76,0.92-1.83,0.97-2.78c0.22-4.34-0.23-8.79,0.52-13.03
			c2.22-12.53,14.37-20.1,26.76-17.23c4.29,1,8.63,1.99,13,2.29c6.51,0.44,12.66-1.76,18.82-3.57c0.25,0,0.49,0,0.74,0
			c0.46,1.78,0.87,3.58,1.38,5.34c2.71,9.38,3.51,18.8,0.73,28.32c-0.15,0.52,0.17,1.27,0.47,1.8c3.32,5.86-0.26,12.99-6.94,13.59
			c-1.35,0.12-1.85,0.65-2.25,1.85c-1.9,5.71-5.57,10.01-10.67,13.17c-0.61,0.38-1.38,1.11-1.41,1.7c-0.06,1.22,0.82,1.76,2.1,2.02
			c12.64,2.56,17.4,12.71,17.63,23.94c-9.12,0-18.24,0-27.44,0c0,7.11,0,14.01,0,20.98c2.02,0,3.94,0,6.03,0
			c0-1.11-0.04-2.08,0.01-3.06c0.14-3.21,2.34-5.73,5.54-5.78c8.41-0.12,16.83-0.12,25.24,0c3.11,0.05,5.4,2.49,5.48,5.62
			c0.12,4.3,0.12,8.6-0.01,12.9c-0.09,3.11-2.47,5.52-5.56,5.55c-8.35,0.1-16.71,0.1-25.06,0c-3.18-0.04-5.47-2.52-5.63-5.69
			c-0.05-1.02-0.01-2.05-0.01-3.14c-2.16,0-4.08,0-6.06,0c0,8.04,0,15.94,0,23.96c2.01,0,3.93,0,6.05,0c0-0.97-0.02-1.82,0-2.67
			c0.09-3.88,2.5-6.27,6.41-6.28c7.86-0.02,15.73-0.02,23.59,0c3.79,0.01,6.26,2.38,6.33,6.17c0.08,3.99,0.08,7.99,0,11.98
			c-0.07,3.5-2.43,6.02-5.89,6.06c-8.17,0.11-16.34,0.11-24.51,0c-3.55-0.05-5.83-2.62-5.92-6.22c-0.02-0.9,0-1.8,0-2.72
			c-2.16,0-4.09,0-6.01,0c0,8.09,0,16.05,0,24.01c2.04,0,3.96,0,6,0c0-0.7,0-1.24,0-1.79c0.04-4.98,2.25-7.21,7.19-7.21
			c7.49-0.01,14.99-0.02,22.48,0.01c4.21,0.01,6.62,2.42,6.67,6.63c0.04,3.26-0.14,6.52,0.05,9.77c0.22,3.74-1.06,6.44-4.6,7.9
			C171.25,194.36,162.16,194.36,153.07,194.36z M157.58,46.89c0-1.72,0.05-3.07-0.01-4.42c-0.16-3.32-2.6-5.72-5.93-5.84
			c-1.29-0.05-2.6,0.15-3.86-0.04c-3.37-0.5-7.1-0.42-9.99-1.91c-3.91-2.02-7.33-1.94-11.08-0.35c-0.28,0.12-0.59,0.15-0.89,0.24
			c-2.92,0.95-4.49,2.93-4.55,5.97c-0.06,3.01-0.08,6.02,0.04,9.03c0.28,7.32,4.92,13.69,11.68,16.18
			c7.06,2.61,14.66,0.83,19.75-4.64C156.58,56.99,157.94,52.04,157.58,46.89z M165.4,36.56c2.16-8.01,1.52-15.78-0.9-23.23
			c-4.23,0.68-8.19,1.49-12.2,1.91c-5.96,0.63-11.67-0.97-17.4-2.37c-9.25-2.26-18.13,3.61-19.48,13.03
			c-0.45,3.13-0.22,6.36-0.29,9.55c-0.01,0.38,0.12,0.75,0.15,0.89c1.69-1.93,3.12-4.24,5.16-5.72c2.03-1.48,4.66-2.12,6.99-3.12
			c-0.95-1.52-1.9-3.05-2.9-4.67c1.95-0.97,3.64-1.81,5.39-2.67c0.41,0.64,0.73,1.15,1.06,1.66c3,4.62,7.22,7.52,12.63,8.41
			c2.58,0.42,5.26,0.31,7.89,0.36c3.65,0.06,6.85,1.29,9.02,4.19C161.86,36.53,163.32,36.83,165.4,36.56z M178.82,115.62
			c-8.15,0-16.15,0-24.14,0c0,4.04,0,7.94,0,11.87c8.11,0,16.1,0,24.14,0C178.82,123.49,178.82,119.63,178.82,115.62z M154.71,145.9
			c0,4.05,0,7.98,0,11.93c8.08,0,16.03,0,24.02,0c0-4.03,0-7.97,0-11.93C170.65,145.9,162.71,145.9,154.71,145.9z M178.81,176.28
			c-8.13,0-16.08,0-24.13,0c0,4,0,7.9,0,11.88c8.08,0,16.09,0,24.13,0C178.81,184.18,178.81,180.32,178.81,176.28z M115.94,91.19
			c4.72,0,9.43,0.01,14.14-0.02c0.35,0,0.92-0.28,0.99-0.53c0.65-2.36,1.22-4.74,1.79-7.12c0.05-0.22-0.01-0.5-0.11-0.7
			c-1.35-2.75-4.18-3.9-7.13-2.92C120.46,81.61,116.21,86.5,115.94,91.19z M162.93,91.19c-0.43-5.33-5.29-10.34-11.14-11.7
			c-1.35-0.32-2.3-0.02-3.44,0.93c-2.13,1.77-2.82,3.59-1.67,6.17c0.49,1.1,0.53,2.39,0.94,3.54c0.16,0.44,0.76,1.02,1.17,1.02
			C153.5,91.22,158.21,91.19,162.93,91.19z M134.4,72.73c-0.06,1.01-0.54,2.41-0.08,2.86c1.32,1.31,2.12,3.42,4.44,3.47
			c2.07,0.05,5.27-1.87,6.06-3.64c0.46-1.04-0.62-2.71-1.72-2.7C140.36,72.74,137.62,72.73,134.4,72.73z M141.54,91.1
			c-0.41-1.69-0.75-3.3-1.22-4.87c-0.12-0.4-0.64-0.69-0.98-1.03c-0.28,0.33-0.72,0.62-0.83,1c-0.45,1.58-0.81,3.19-1.23,4.9
			C138.74,91.1,140.06,91.1,141.54,91.1z M115.05,42.78c-1.94,0.22-2.8,1.25-2.89,2.91c-0.08,1.63,0.92,2.61,2.89,2.92
			C115.05,46.73,115.05,44.85,115.05,42.78z M163.82,48.65c2.04-0.46,2.94-1.45,2.88-3.05c-0.06-1.57-1.04-2.53-2.88-2.7
			C163.82,44.78,163.82,46.66,163.82,48.65z"/>
		<path class="st2" d="M62.02,194.36c-3.8-2.19-3.8-2.19-4.65-9.12c-1.59,0-3.23,0.01-4.86,0c-4.87-0.02-7.1-2.23-7.1-7.08
			c0-26.17,0-52.33,0-78.5c0-0.67,0-1.34,0-2.26c-9.27,0-18.43,0-27.6,0c0.45-11.46,5.01-21.51,18.14-24.03
			c1.28-0.25,1.65-1.09,1.67-2.02c0.01-0.49-0.64-1.18-1.17-1.49c-5.34-3.17-9.09-7.63-11.02-13.54c-0.37-1.13-0.91-1.5-2.05-1.58
			c-3.64-0.28-6.24-2.21-7.6-5.54c-1.36-3.33-0.79-6.46,1.45-9.34c0.53-0.69,0.86-1.75,0.85-2.63c-0.08-5.01,0.11-9.97,2.33-14.59
			C25.31,12.43,33.37,6.77,44.74,6.39c4.39-0.15,8.92-0.11,13.17,0.8C69.66,9.7,78.15,20.24,78.68,32.24
			c0.03,0.74,0.06,1.47,0.04,2.21c-0.04,2.44,0.22,4.58,1.73,6.85c3.62,5.45-0.28,12.79-6.84,13.39c-1.3,0.12-1.88,0.56-2.29,1.8
			c-1.93,5.84-5.67,10.25-10.98,13.34c-0.42,0.24-0.83,0.5-1.27,0.76c0.06,1.72,0.73,2.58,2.56,2.89
			c8.46,1.47,15.03,8.36,16.56,17.14c0.37,2.11,0.69,4.23,1.07,6.61c-9.28,0-18.45,0-27.73,0c0,7.16,0,14.07,0,21.11
			c1.96,0,3.88,0,6,0c0-0.85-0.01-1.63,0-2.41c0.05-4.1,2.38-6.48,6.57-6.51c6.82-0.05,13.64-0.02,20.46-0.01
			c1.29,0,2.59-0.03,3.87,0.08c2.88,0.25,5.21,2.29,5.34,5.17c0.2,4.59,0.21,9.21-0.01,13.8c-0.14,2.93-2.59,5.1-5.56,5.12
			c-8.29,0.08-16.59,0.09-24.88,0c-3.35-0.04-5.66-2.58-5.77-5.95c-0.03-0.91,0-1.82,0-2.88c-2.06,0-3.98,0-6.02,0
			c0,7.94,0,15.84,0,23.91c1.91,0,3.82,0,6.02,0c0-1.02-0.03-2.03,0.01-3.05c0.13-3.31,2.58-5.81,5.91-5.83
			c8.17-0.05,16.34-0.05,24.51,0c3.11,0.02,5.67,2.21,5.81,5.3c0.21,4.47,0.21,8.97,0.02,13.44c-0.13,3.17-2.58,5.43-5.88,5.47
			c-8.17,0.11-16.34,0.12-24.51-0.01c-3.56-0.06-5.81-2.68-5.88-6.26c-0.02-0.85,0-1.7,0-2.68c-2.05,0-3.98,0-6.01,0
			c0,7.98,0,15.94,0,24.03c1.96,0,3.88,0,6.01,0c0-0.96-0.02-1.86,0-2.76c0.07-3.56,2.42-6.17,5.93-6.21
			c8.17-0.09,16.34-0.09,24.51,0c3.28,0.04,5.73,2.41,5.86,5.71c0.16,4.29,0.11,8.6,0.01,12.89c-0.07,2.95-2.08,4.54-4.56,5.65
			C80.2,194.36,71.11,194.36,62.02,194.36z M30.26,45.25C30.26,45.25,30.27,45.25,30.26,45.25c0.01,1.35-0.03,2.7,0.01,4.05
			c0.28,8.99,7.21,16.61,15.9,17.51c9.47,0.98,18.04-4.85,19.85-14.01c0.71-3.61,0.54-7.45,0.39-11.17c-0.12-2.82-2.76-4.88-5.71-5
			c-1.23-0.05-2.46-0.04-3.68-0.01c-5.03,0.12-9.73-1.01-14.08-3.59c-0.46-0.28-1.18-0.41-1.69-0.28c-2.31,0.59-4.63,1.22-6.89,1.99
			c-2.58,0.88-3.99,2.78-4.1,5.53C30.21,41.93,30.26,43.59,30.26,45.25z M24.48,36.6c2.21-5.52,6.73-7.78,12.15-8.8
			c-1.11-1.77-2.08-3.31-3.11-4.96c1.92-0.96,3.65-1.82,5.44-2.72c2.98,5.41,7.27,8.9,13.17,9.99c2.63,0.48,5.37,0.42,8.07,0.45
			c4.23,0.04,7.56,1.73,10.16,5.05c0.45,0.57,1.29,0.84,2.15,1.37c1.11-10.93-4.7-20.3-14.27-23.5c-5.01-1.67-10.19-1.34-15.33-0.93
			c-4.02,0.32-7.6,1.91-10.72,4.44C25.99,22.03,23.68,28.66,24.48,36.6z M87.75,115.57c-8.1,0-16.05,0-24.06,0
			c0,4.04,0,7.98,0,11.96c8.08,0,16.03,0,24.06,0C87.75,123.53,87.75,119.63,87.75,115.57z M87.78,145.92c-8.14,0-16.09,0-24.13,0
			c0,4.02,0,7.91,0,11.88c8.09,0,16.09,0,24.13,0C87.78,153.79,87.78,149.94,87.78,145.92z M87.78,176.29c-8.12,0-16.07,0-24.12,0
			c0,4,0,7.89,0,11.87c8.09,0,16.08,0,24.12,0C87.78,184.16,87.78,180.31,87.78,176.29z M72.1,91.19c-1.08-4.9-3.68-8.31-7.92-10.47
			c-4.19-2.14-5.38-1.94-8.48,1.5c-0.41,0.45-0.7,1.31-0.59,1.9c0.38,2.04,0.92,4.06,1.49,6.05c0.12,0.4,0.67,0.97,1.02,0.98
			C62.39,91.21,67.15,91.19,72.1,91.19z M24.89,90.99c0.1,0.06,0.2,0.16,0.31,0.16c3.25,0.02,6.5,0.05,9.75,0.03
			c1.64-0.01,3.69,0.46,4.8-0.34c1.01-0.73,0.83-2.94,1.45-4.38c1.08-2.53,0.51-4.45-1.72-5.93c-0.71-0.47-1.53-1.18-2.28-1.15
			C31.47,79.62,25.61,85.23,24.89,90.99z M43.65,72.86c-1,2.4-0.48,3.58,2.59,5.82c1,0.72,3.82,0.48,4.77-0.4
			c3.37-3.16,3.37-3.17,2.01-5.41C49.9,72.86,46.86,72.86,43.65,72.86z M50.54,91.1c-0.43-1.75-0.8-3.41-1.27-5.04
			c-0.1-0.35-0.57-0.7-0.94-0.81c-0.17-0.05-0.66,0.44-0.75,0.76c-0.47,1.64-0.85,3.3-1.3,5.08C47.76,91.1,49.08,91.1,50.54,91.1z
			 M72.76,42.77c0,2.07,0,3.95,0,5.85c1.97-0.3,2.96-1.26,2.9-2.91C75.6,44.02,74.72,43.02,72.76,42.77z M24.03,48.68
			c0-2,0-3.88,0-5.75c-1.74,0.12-2.72,0.98-2.89,2.47C20.95,46.99,21.92,48.15,24.03,48.68z"/>
		<path class="st2" d="M151.2,53.13c-3.77,7.01-10.03,8.52-17.73,7.54c0-1.86,0-3.74,0-5.83c4.54-0.21,9.56,0.95,12.33-4.42
			C147.67,51.36,149.43,52.24,151.2,53.13z"/>
		<path class="st2" d="M42.49,60.73c0-1.97,0-3.85,0-5.9c4.6-0.17,9.6,0.93,12.29-4.41c1.89,0.95,3.61,1.82,5.32,2.69
			C57.37,59.11,51.12,61.8,42.49,60.73z"/>
	</g>
</g>
</svg>
