<?xml version="1.0" encoding="utf-8"?>
<!-- Generator: Adobe Illustrator 24.1.3, SVG Export Plug-In . SVG Version: 6.00 Build 0)  -->
<svg version="1.1" xmlns="http://www.w3.org/2000/svg" xmlns:xlink="http://www.w3.org/1999/xlink" x="0px" y="0px"
	 viewBox="0 0 200 200" style="enable-background:new 0 0 200 200;" xml:space="preserve">
<style type="text/css">
	.st0{display:none;}
	.st1{display:inline;fill:#FFFFFF;stroke:#000000;stroke-width:0.8168;stroke-miterlimit:10;}
	.st2{fill:#010101;}
</style>
<g id="Layer_2" class="st0">
	<rect x="5.64" y="5.64" class="st1" width="188.72" height="188.72"/>
</g>
<g id="Layer_1">
	<g>
		<path class="st2" d="M91.88,194.47c-3.37-0.25-6.74-0.45-10.1-0.74c-13.77-1.2-27.31-3.42-39.89-9.57
			c-4.78-2.33-9.25-5.17-12.56-9.45c-0.66-0.85-1.17-2.08-1.16-3.12c0.17-10.88,0.21-21.77,2.07-32.54
			c1.38-7.98,3.82-15.5,9.55-21.57c4.01-4.25,8.92-7.09,14.25-9.28c7.77-3.18,15.92-5,24.14-6.49c0.53-0.1,1.3,0.19,1.71,0.57
			c4.77,4.41,10.52,6.42,16.87,6.94c6.37,0.52,12.53-0.23,18.21-3.35c1.81-1,3.37-2.43,5.1-3.59c0.49-0.33,1.19-0.66,1.72-0.56
			c8.4,1.55,16.73,3.37,24.65,6.71c7.6,3.2,14.08,7.76,18.2,15.14c3.04,5.45,4.82,11.36,5.35,17.5c0.87,10.09,1.31,20.23,1.8,30.35
			c0.05,1.09-0.47,2.43-1.16,3.3c-4.34,5.46-10.28,8.68-16.58,11.28c-11.6,4.79-23.82,6.76-36.24,7.75
			c-3.12,0.25-6.24,0.48-9.36,0.73C102.95,194.47,97.42,194.47,91.88,194.47z"/>
		<path class="st2" d="M62.05,48.35c0.17-7.08,0.73-14.11,2.9-20.92c4.01-12.6,12.88-19.29,25.7-21.18
			c7.86-1.16,15.68-1.01,23.41,0.98c10.26,2.65,17.4,8.96,20.53,19.02c4.34,13.94,5.13,28.19,0.75,42.28
			c-3.7,11.92-10.75,21.44-22.49,26.58c-11.06,4.84-21.78,3.52-31.64-3.32C71.14,84.82,65.59,74.79,63.21,63
			C62.25,58.22,62.01,53.42,62.05,48.35C62.2,48.34,61.9,48.37,62.05,48.35z"/>
	</g>
</g>
</svg>
