<?xml version="1.0" encoding="utf-8"?>
<!-- Generator: Adobe Illustrator 24.1.3, SVG Export Plug-In . SVG Version: 6.00 Build 0)  -->
<svg version="1.1" xmlns="http://www.w3.org/2000/svg" xmlns:xlink="http://www.w3.org/1999/xlink" x="0px" y="0px"
	 viewBox="0 0 200 200" style="enable-background:new 0 0 200 200;" xml:space="preserve">
<style type="text/css">
	.st0{display:none;}
	.st1{display:inline;fill:#FFFFFF;stroke:#000000;stroke-width:0.8168;stroke-miterlimit:10;}
	.st2{fill:#010101;}
</style>
<g id="Layer_2" class="st0">
	<rect x="5.64" y="5.64" class="st1" width="188.72" height="188.72"/>
</g>
<g id="Layer_1">
	<g>
		<path class="st2" d="M118.7,72.22c0,21.71,0,43.23,0,65.13c-4.02,0-7.94,0-12.51,0c0-3.93,0.02-7.72,0-11.5
			c-0.02-4.16-1.93-6.83-6.27-6.79c-4.36,0.04-6.12,2.82-6.11,6.94c0.01,3.66,0,7.32,0,11.35c-4.28,0-8.2,0-12.44,0
			c0-21.68,0-43.19,0-65.14C93.57,72.22,105.84,72.22,118.7,72.22z M90.98,81.3c0,2.15,0,3.88,0,5.75c2.04,0,3.76,0,5.61,0
			c0-2.07,0-3.8,0-5.75C94.69,81.3,93.1,81.3,90.98,81.3z M109.11,81.48c-1.91,0-3.75,0-5.7,0c0,1.97,0,3.7,0,5.58
			c2.03,0,3.75,0,5.7,0C109.11,85.11,109.11,83.5,109.11,81.48z M90.9,100.06c2.37-0.13,4.11-0.22,5.77-0.3c0-2.15,0-3.76,0-5.53
			c-2.09,0-3.94,0-5.77,0C90.9,96.25,90.9,97.86,90.9,100.06z M103.29,99.64c2.3,0,4.05,0,6.07,0c-0.11-2.11-0.19-3.85-0.3-5.86
			c-2.26,0.11-4,0.2-5.78,0.28C103.29,96.2,103.29,97.81,103.29,99.64z M96.67,106.17c-2.23,0.1-3.83,0.18-5.71,0.27
			c0,2.04,0,3.77,0,5.63c2.08,0,3.91,0,5.98,0C96.85,109.98,96.77,108.38,96.67,106.17z M103.33,106.46c0,2.21,0,3.82,0,5.64
			c2.07,0,3.91,0,6.04,0c-0.14-2.19-0.24-3.92-0.35-5.64C106.88,106.46,105.28,106.46,103.33,106.46z"/>
		<path class="st2" d="M166.73,137.77c15.52,0.47,27.96,13.4,27.62,28.71c-0.35,15.6-13.69,28.38-29.08,27.86
			c-15.73-0.54-28.11-13.75-27.5-29.32C138.4,149.39,151.25,137.3,166.73,137.77z M181.81,180.7c8.33-7.7,8.36-21.69-0.41-30.35
			c-8.81-8.7-22.97-8.39-31.48,0.69c-8.28,8.83-7.8,22.83,0.46,29.83c4.02-3.49,7.95-6.9,11.78-10.22
			c-5.8-4.38-7.16-10.1-3.08-14.83c3.53-4.08,9.69-4.65,13.35-0.75c1.58,1.68,3.24,4.58,2.85,6.52c-0.71,3.53-2.91,6.76-4.29,9.68
			C174.2,174.07,177.98,177.36,181.81,180.7z"/>
		<path class="st2" d="M62.22,34.08C62.16,49.63,49.7,62.12,34.14,62.22C18.51,62.32,5.58,49.46,5.65,33.89
			C5.73,18.36,18.87,5.42,34.33,5.66C49.78,5.9,62.27,18.63,62.22,34.08z M38.03,38.68c3.79,3.2,7.78,6.55,11.87,10
			c8.35-7.56,8.37-21.77-0.7-30.5c-9.03-8.7-23.67-8.03-31.83,1.45c-7.8,9.07-6.91,23.31,0.99,29.1c4.18-3.52,8.16-6.87,11.95-10.06
			c-4.84-3.38-6.58-6.85-5.08-11.41c1.42-4.31,4.45-6.67,8.98-6.67c4.54,0,7.56,2.43,8.98,6.71C44.65,31.75,42.77,35.4,38.03,38.68z
			"/>
		<path class="st2" d="M62.23,165.78c0.16,15.62-12.67,28.6-28.26,28.58c-15.34-0.02-28.16-12.74-28.32-28.12
			C5.48,150.67,18.33,137.76,34,137.77C49.56,137.76,62.07,150.18,62.23,165.78z M49.87,180.76c8.44-8.4,8.28-22.15-0.85-30.77
			c-8.82-8.33-22.8-7.86-31.11,1.04c-8.25,8.84-7.76,22.73,0.41,29.86c4.01-3.49,7.93-6.91,11.73-10.22
			c-5.8-4.47-7.12-9.88-3.13-14.73c3.37-4.09,9.64-4.78,13.34-1c1.62,1.66,3.45,4.54,3.07,6.44c-0.74,3.65-2.99,7-4.36,9.94
			C42.16,174.08,45.85,177.27,49.87,180.76z"/>
		<path class="st2" d="M165.46,62.22c-15.62-0.36-27.89-13-27.69-28.53c0.2-15.69,13.28-28.43,28.79-28.04
			c15.42,0.38,28.01,13.35,27.8,28.63C194.14,49.93,181.06,62.58,165.46,62.22z M181.86,48.63c8.09-7.17,8.36-21.16-0.04-29.9
			c-8.67-9.02-23.29-8.89-31.89,0.28c-8.29,8.84-7.83,22.63,0.37,29.86c4.18-3.52,8.26-6.95,12.14-10.21
			c-4.84-3.07-6.68-6.6-5.19-11.4c1.35-4.34,4.43-6.64,8.96-6.68c4.35-0.04,7.31,2.29,8.84,6.23c1.8,4.63-0.07,8.46-4.96,11.88
			C173.85,41.87,177.81,45.21,181.86,48.63z"/>
		<path class="st2" d="M77.56,137.41c-5.92,0-11.86,0-18.46,0c0-8.72-0.08-17.21,0.13-25.69c0.02-0.81,1.88-2.2,2.94-2.25
			c4.99-0.24,10-0.11,15.38-0.11C77.56,118.86,77.56,127.97,77.56,137.41z"/>
		<path class="st2" d="M122.29,109.84c0.88-0.22,1.36-0.44,1.83-0.43c5.33,0.12,10.66,0.27,15.99,0.41
			c0.27,5.11,0.63,10.23,0.8,15.34c0.13,3.97,0.03,7.95,0.03,12.24c-6.52,0-12.47,0-18.65,0
			C122.29,128.17,122.29,119.16,122.29,109.84z"/>
		<path class="st2" d="M132.44,24.94c-0.42,1.23-0.63,2.02-0.96,2.76c-0.39,0.9-0.87,1.75-1.46,2.94
			c-19.9-8.03-39.74-8.21-60.06,0.06c-0.82-1.74-1.62-3.46-2.66-5.67C89.29,16.08,110.69,16.08,132.44,24.94z"/>
		<path class="st2" d="M30.52,129.61c-2.13,0.87-3.78,1.54-5.78,2.36c-8.66-21.66-8.6-42.88,0.27-64.59
			c2.03,0.84,3.67,1.52,5.72,2.37C22.66,89.64,22.44,109.39,30.52,129.61z"/>
		<path class="st2" d="M169.27,69.96c1.48-0.72,2.5-1.28,3.56-1.72c0.59-0.25,1.26-0.32,2.24-0.55c8.82,21.42,8.77,42.63,0.19,64.3
			c-2.02-0.84-3.67-1.52-5.74-2.38C177.39,109.77,177.5,90.03,169.27,69.96z"/>
		<path class="st2" d="M129.58,169.49c0.87,2.03,1.52,3.55,2.43,5.69c-21.43,8.69-42.52,8.67-63.91,0.09
			c0.44-1.28,0.72-2.24,1.1-3.14c0.32-0.75,0.77-1.45,1.36-2.55C90.05,177.36,109.63,177.46,129.58,169.49z"/>
		<path class="st2" d="M77.76,93.81c0,4.29,0,7.91,0,11.97c-8,0-15.99,0-24.59,0c1.79-3.62,3.26-6.93,5.07-10.06
			c0.53-0.92,1.99-1.79,3.06-1.82C66.6,93.71,71.91,93.81,77.76,93.81z"/>
		<path class="st2" d="M146.96,106.01c-8.62,0-16.4,0-24.55,0c0-3.86,0-7.61,0-12.16c5.57,0,11.31-0.08,17.05,0.09
			c0.85,0.03,1.96,1.12,2.45,1.99C143.59,98.96,145.04,102.12,146.96,106.01z"/>
		<path class="st2" d="M112.29,59.06c0,3.41,0,6.17,0,9.59c-4.14,0-8.07,0-12,0c-3.99,0-7.98,0-12.42,0c0-3.12,0-5.99,0-9.59
			c3.97,0,7.91,0,11.84,0C103.7,59.06,107.69,59.06,112.29,59.06z"/>
		<path class="st2" d="M102.78,55.67c-1.81,0-3.43,0-5.45,0c0-4.82,0-9.7,0-14.94c1.68,0,3.4,0,5.45,0
			C102.78,45.63,102.78,50.53,102.78,55.67z"/>
	</g>
</g>
</svg>
